<?xml version="1.0" encoding="iso-8859-1"?>
<!-- Generator: Adobe Illustrator 19.0.0, SVG Export Plug-In . SVG Version: 6.00 Build 0)  -->
<svg version="1.1" id="Capa_1" xmlns="http://www.w3.org/2000/svg" xmlns:xlink="http://www.w3.org/1999/xlink" x="0px" y="0px"
	 viewBox="0 0 512 512" style="enable-background:new 0 0 512 512;" xml:space="preserve">
<g>
	<g>
		<path d="M346,218.501c-24.813,0-45,20.187-45,45c0,24.813,20.187,45,45,45s45-20.187,45-45S370.813,218.501,346,218.501z
			 M346,278.501c-8.271,0-15-6.729-15-15s6.729-15,15-15s15,6.729,15,15S354.271,278.501,346,278.501z"/>
	</g>
</g>
<g>
	<g>
		<path d="M166,218.501c-24.813,0-45,20.187-45,45c0,24.813,20.187,45,45,45s45-20.187,45-45S190.813,218.501,166,218.501z
			 M166,278.501c-8.271,0-15-6.729-15-15s6.729-15,15-15s15,6.729,15,15S174.271,278.501,166,278.501z"/>
	</g>
</g>
<g>
	<g>
		<path d="M512,38.499c0-8.284-6.716-15-15-15s-15,6.716-15,15c0,16.263-14.196,30.001-31,30.001h-67.664
			c-38.576-19.635-82.515-30-127.336-30s-88.76,10.365-127.336,30H61.183C44.28,68.501,30,54.762,30,38.499c0-8.284-6.716-15-15-15
			s-15,6.716-15,15V83.5c0,27.829,11.014,54.053,31.018,73.917C10.69,190.649,0,227.06,0,263.501c0,124.065,114.841,225,256,225
			s256-100.935,256-225c0-36.385-10.659-72.747-30.932-105.941C500.173,138.559,512,112.373,512,83.501V38.499z M256.001,68.501
			c23.896,0,47.484,3.284,69.921,9.635c-16.754,6.714-32.132,16.818-45.271,29.977c-10.012,10.027-18.244,21.353-24.559,33.591
			c-6.315-12.238-14.547-23.564-24.559-33.591c-13.159-13.179-28.563-23.293-45.347-30.007
			C208.591,71.775,232.142,68.501,256.001,68.501z M256,317.53c5.61,9.31,12.623,17.68,20.744,24.822L256,381.478l-20.744-39.127
			C243.377,335.21,250.39,326.839,256,317.53z M166,338.501c-41.355,0-75-33.645-75-75c0-41.355,33.645-75,75-75s75,33.645,75,75
			C241,304.856,207.355,338.501,166,338.501z M271,263.501c0-1.193,0.035-2.378,0.09-3.558c0.104-0.717,0.176-1.445,0.174-2.191
			v-0.286c3.087-38.541,35.414-68.965,74.736-68.965c41.355,0,75,33.645,75,75c0,41.355-33.645,75-75,75
			C304.645,338.501,271,304.856,271,263.501z M30.298,90.164c9.323,5.436,19.918,8.337,30.885,8.337h70.927c0.024,0,0.048,0,0.073,0
			H136c28.077,0,54.465,10.942,74.303,30.81c16.367,16.392,26.644,37.234,29.718,59.792c-16.911-16.826-39.507-27.937-64.618-30.176
			c-1.123-0.269-2.289-0.426-3.494-0.426h-65.727c-16.386,0-31.573-5.129-44.012-13.828c-0.802-0.926-1.716-1.779-2.768-2.51
			c-0.701-0.487-1.433-0.89-2.18-1.243C42.21,128.494,32.122,110.48,30.298,90.164z M482,263.501c0,107.523-101.383,195-226,195
			s-226-87.477-226-195c0-30.012,8.66-60.172,25.157-88.02c11.81,6.471,24.741,10.638,38.223,12.255
			C73.436,206.859,61,233.754,61,263.501c0,57.897,47.103,105,105,105c15.714,0,30.629-3.476,44.026-9.689l32.721,61.716
			c2.602,4.906,7.7,7.974,13.253,7.974s10.651-3.068,13.253-7.974l32.721-61.716c13.397,6.213,28.313,9.689,44.026,9.689
			c57.897,0,105-47.103,105-105c0-29.738-12.429-56.626-32.363-75.749c13.726-1.623,26.654-5.851,38.264-12.174
			C473.36,203.4,482,233.527,482,263.501z M454.54,141.161c-0.639,0.319-1.268,0.67-1.871,1.089
			c-0.97,0.674-1.824,1.451-2.583,2.292C437.643,153.319,422.426,158.5,406,158.5h-65.727c-1.17,0-2.304,0.147-3.397,0.401
			c-25.12,2.173-47.736,13.224-64.687,29.996c3.108-22.479,13.373-43.245,29.69-59.587c19.838-19.868,46.226-30.81,74.303-30.81
			h3.394c0.033,0,0.066,0.003,0.099,0.003c0.029,0,0.058-0.003,0.087-0.003H451c10.905,0,21.433-2.873,30.695-8.256
			C479.844,110.662,469.661,128.744,454.54,141.161z"/>
	</g>
</g>
<g>
</g>
<g>
</g>
<g>
</g>
<g>
</g>
<g>
</g>
<g>
</g>
<g>
</g>
<g>
</g>
<g>
</g>
<g>
</g>
<g>
</g>
<g>
</g>
<g>
</g>
<g>
</g>
<g>
</g>
</svg>
