<svg id="Capa_1" enable-background="new 0 0 512 512" height="512" viewBox="0 0 512 512" width="512" xmlns="http://www.w3.org/2000/svg"><g><path d="m171.327 279.167h29.936v29.936h-29.936z"/><path d="m310.737 279.167h29.936v29.936h-29.936z"/><path d="m511.456 339.424c0-41.451-10.799-83.221-31.229-120.794-2.764-5.083-5.711-10.062-8.797-14.95l.085.056c.682-1.031 16.813-25.653 24.917-62.004 10.862-48.715 2.207-95.576-25.028-135.518l-4.457-6.214h-44.193s-80.395 78.07-96.254 93.823c-22.834-6.543-46.505-9.856-70.5-9.856-19.981 0-39.817 2.31-59.092 6.873-16.049-15.837-95.598-90.84-95.598-90.84h-44.193l-4.457 6.213c-27.235 39.942-35.89 86.804-25.028 135.519 5.066 22.721 13.267 40.86 18.872 51.52-4.5 6.433-8.724 13.066-12.618 19.901-21.812 38.291-33.342 81.954-33.342 126.27v70.411l23.184-8.036c.035 8.393.423 45.333.423 45.333l70.436-37.007 55.451 23.473c6.605 21.157 24.291 37.462 46.23 42.111 11.461 21.999 34.521 36.292 59.732 36.292 25.402 0 48.179-14.405 59.589-36.05 23.383-4.457 42.138-22.11 48.187-44.895l55.406-21.034 68.641 37.585s.408-37.428.445-45.856l23.188 8.376zm-100.795-203.256 48.688-90.507c12.21 27.229 14.941 56.911 8.083 88.56-3.994 18.435-10.507 33.505-15.2 42.802-12.363-15.124-26.319-28.876-41.571-40.855zm-354.03-1.947c-6.857-31.649-4.126-61.331 8.084-88.56l45.259 84.135c-15.581 10.879-29.907 23.471-42.692 37.475-3.79-8.799-7.842-20.089-10.651-33.05zm36.576 242.812-39.552 20.78c-.02-8.146 1.793-38.693 1.793-38.693l-19.623 6.802c9.249-20.06 29.537-34.025 53.038-34.025 32.191 0 58.381 26.19 58.381 58.382v9.628zm138.265 95.821c9.814-3.821 18.421-10.068 25.072-18.014 6.481 7.743 14.82 13.874 24.322 17.718-6.675 5.943-15.446 9.506-24.866 9.506-9.183 0-17.852-3.415-24.528-9.21zm28.14-70.607c-.965.965-2.247 1.496-3.612 1.496s-2.648-.532-3.614-1.497l-12.684-12.683c1.397-1.825 3.597-3.005 6.068-3.005h20.46c2.47 0 4.671 1.18 6.067 3.005zm76.297 12.95c0 17.603-14.321 31.923-31.923 31.923-12.977 0-24.162-7.788-29.149-18.931 2.123-1.359 4.119-2.949 5.944-4.775l23.021-23.02v-6.2c0-20.718-16.855-37.573-37.572-37.573h-20.46c-20.718 0-37.573 16.855-37.573 37.573v6.2l23.02 23.019c2.067 2.068 4.348 3.845 6.791 5.312-5.102 10.857-16.138 18.395-28.906 18.395-17.603 0-31.923-14.321-31.923-31.923v-24.919c0-48.699-39.619-88.318-88.318-88.318-22.092 0-42.314 8.154-57.818 21.609 2.365-33.626 12.215-66.39 28.854-95.599 18.675-32.783 45.516-60.612 77.622-80.476l11.981-7.412-58.13-108.06c15.706 15.472 72.112 67.689 90.425 86.002l6.148 6.148 8.386-2.294c19.339-5.291 39.415-7.975 59.669-7.975 23.95 0 47.522 3.731 70.061 11.09l8.733 2.851 6.496-6.496c18.425-18.424 75.725-73.733 91.37-89.267l-60.766 112.96 10.84 7.643c29.238 20.614 53.855 48.362 71.191 80.245 15.266 28.074 24.418 58.743 26.888 89.598-15.336-12.831-35.074-20.567-56.588-20.567-48.699 0-88.318 39.619-88.318 88.318v24.919zm122.434-17.864-36.886-20.197-55.611 21.112v-7.97c0-32.192 26.19-58.382 58.382-58.382 23.513 0 43.809 13.98 53.052 34.058l-20.758-7.478c-.002.001 1.839 30.796 1.821 38.857z"/></g></svg>