<svg id="Layer_1" enable-background="new 0 0 513.386 513.386" height="512" viewBox="0 0 513.386 513.386" width="512" xmlns="http://www.w3.org/2000/svg"><path d="m339.441 118.268 18.503 35.464-101.251 52.827-101.251-52.827 18.503-35.464 82.749 43.173zm145.163 42.518c17.942 40.524 28.089 88.634 28.089 134.214 0 32.041 0 57.348-5.544 80.632l-9.417 39.555-23.01-28.424c4.042 26.542 6.791 58.818 4.943 93.307l-1.785 33.316-28.542-17.276c-27.763-16.804-56.185-25.72-82.687-32.439-21 20.923-58.351 48.329-109.958 48.329s-88.958-27.406-109.958-48.329c-26.501 6.719-54.924 15.636-82.687 32.439l-28.542 17.276-1.785-33.316c-1.848-34.49.901-66.765 4.942-93.307l-23.01 28.424-9.417-39.555c-5.543-23.284-5.543-48.591-5.543-80.632 0-45.58 10.147-93.69 28.089-134.214-11.578-13.985-28.089-40.171-28.089-75.786 0-22.05 10.097-43.918 28.43-61.577 12.104-11.658 30.365-23.423 43.874-23.423 13.608 0 27.979 9.633 48.055 32.21 5.081 5.715 9.739 11.392 13.438 16.063 22.884-10.736 47.503-16.27 73.201-16.273 7.491 0 16.028 1.143 23.002 2 8.253 1.005 16.662 2.007 25 2 8.122-.006 16.175-.995 23.949-1.955 7.137-.888 16.354-2.033 24.02-2.045h.295c26.397 0 51.562 5.583 74.826 16.416 3.717-4.697 8.419-10.433 13.551-16.205 20.075-22.578 34.447-32.211 48.055-32.211 13.509 0 31.77 11.765 43.875 23.423 18.333 17.659 28.43 39.527 28.43 61.577-.001 35.615-16.512 61.801-28.09 75.786zm-164.137 289.805c-8.813-1.371-17.216-3.629-25.178-6.774-14.664-5.793-27.881-14.59-39.5-26.267-11.536 11.578-24.93 20.265-40.032 25.938-7.508 2.82-15.469 4.874-23.836 6.194 16.162 11.746 38.103 22.318 64.772 22.318 26.245 0 47.783-10.031 63.774-21.409zm-83.709-72.379c-6.429-7.273-17.405-18.086-27.658-26.625-3.499 7.752-7.335 15.759-11.519 24.029-6.731 13.301-13.424 25.43-19.238 35.52 25.148-2.017 44.136-12.805 58.415-32.924zm98.818 33.852c-5.935-10.268-12.836-22.742-19.772-36.448-4.182-8.265-8.016-16.268-11.513-24.016-10.838 9.045-22.473 20.638-28.68 27.87 15.526 20.51 35.035 31.197 59.965 32.594zm100.029-260.366 12.145-9.946c1.682-1.482 24.943-22.608 24.943-56.752 0-22.335-22.14-39.503-31.786-44.134-6.021 4.029-17.043 15.444-27.696 28.496 9.211 7.061 17.996 15.087 26.293 24.065l-29.378 27.146c-20.485-22.169-55.526-48.573-106.172-48.573-.078 0-.152 0-.229 0-5.219.008-12.031 1-18.045 2-10 1-20.281 2.01-29.986 2-9.681-.01-19.253-.813-29-2-6.044-.743-13.959-2-18.999-2-39.518.004-74.655 16.346-104.435 48.573l-29.378-27.146c8.313-8.996 17.086-17.034 26.259-24.106-10.642-13.034-21.648-24.43-27.663-28.455-9.645 4.631-31.785 21.799-31.785 44.134 0 34.144 23.262 55.27 24.944 56.752l12.367 10.131-7.461 14.137c-10.142 20.07-18.06 43.448-23.187 67.627l45.669-28.104c.282 4.494.839 9.355 1.816 14.406 1.828 9.451 4.821 18.146 8.87 25.986l-62.804 38.649c-.137 3.494-.214 6.971-.214 10.417 0 12.507 0 23.896.342 34.297 8.152-6.243 14.94-10.666 17.822-12.486 15.725-13.198 44.87-29.681 66.083-40.956l42.587 23.089c-16.127 7.942-59.254 30.402-79.288 45.592-5.299 19.668-13.663 57.173-14.944 101.658 15.925-7.155 31.535-12.432 46.617-16.744l-.011-.017 7.2-10.971c17.641-26.911 61.329-102.611 67.753-152.047l-41.769-22.873.152-.278c-26.566-17.522-20.544-56.265-20.544-56.265l39.561 21.542.046-.084 63.35 34.692v11.85c0 17.809-4.481 39.279-13.365 64.174h68.817c-8.884-24.895-13.365-46.365-13.365-64.174v-11.85l63.35-34.692.046.084 39.56-21.542s6.022 38.743-20.546 56.264l.152.278-41.769 22.873c6.424 49.436 50.112 125.137 67.755 152.051l7.19 10.969-.009.013c15.083 4.312 30.695 9.589 46.622 16.745-1.258-43.674-9.342-80.622-14.651-100.567-19.342-15.184-64.186-38.548-80.704-46.683l42.587-23.089c19.712 10.478 46.274 25.451 62.553 38.108l3.198 1.942c.65.395 8.867 5.419 19.278 13.393.342-10.4.342-21.79.342-34.297 0-3.658-.085-7.348-.239-11.059l-61.761-38.007c4.048-7.84 7.042-16.535 8.87-25.986.977-5.051 1.534-9.912 1.816-14.406l44.5 27.385c-5.131-23.923-12.995-47.036-23.036-66.907z"/></svg>