<svg id="Capa_1" enable-background="new 0 0 512 512" height="512" viewBox="0 0 512 512" width="512" xmlns="http://www.w3.org/2000/svg"><g><path d="m191.571 206.571h30v30h-30z"/><path d="m290.128 206.571h30v30h-30z"/><path d="m505.721 207.011c-1.318-1.836-32.804-44.969-78.009-44.969-2.556 0-16.476.215-28.1.936-5.069-13.934-14.033-28.109-25.326-38.018v-6.674c0-48.681 39.604-88.286 88.285-88.286v-30h-65.026c-59.541 0-109.257 42.836-119.971 99.307-3.997-.007-39.152-.008-43.148-.002-10.715-56.47-60.431-99.305-119.971-99.305h-65.026v30c48.681 0 88.285 39.605 88.285 88.286v6.507c-11.41 9.93-20.459 24.138-25.581 38.17-11.572-.709-25.307-.92-27.844-.92-45.205 0-76.69 43.133-78.009 44.969l-6.28 8.747 6.279 8.748c1.318 1.836 32.804 44.969 78.009 44.969 2.134 0 13.539-.154 23.887-.625 7.655 36.454 24.139 70.052 48.266 97.482 1.92 2.182 3.878 4.308 5.866 6.381-1.882 11.705-2.63 25.885-2.63 33.858 0 44.622 41.397 79.022 43.16 80.464l5.93 4.854c5.366-1.115 11.259-2.995 15.88-5.78 8.667 10.736 19.25 19.47 31.353 25.89 12.103-6.42 22.685-15.154 31.353-25.89 4.621 2.784 10.514 4.664 15.88 5.78l5.93-4.854c1.763-1.442 43.16-35.843 43.16-80.464 0-8.608-.805-22.663-2.545-34.08 1.915-2.006 3.8-4.065 5.65-6.174 24.059-27.424 40.496-61.021 48.127-97.479 10.418.481 22.006.637 24.158.637 45.205 0 76.69-43.133 78.009-44.969l6.279-8.748zm-123.131-175.798c-21.138 19.432-35.198 46.445-37.843 76.678-11.678-4.167-24.118-6.343-36.725-7.455 8.628-35.621 38.003-63.229 74.568-69.223zm-253.18 0c36.562 5.993 65.934 33.596 74.565 69.213-12.604 1.106-25.043 3.271-36.727 7.417-2.655-30.214-16.711-57.208-37.838-76.63zm-45.122 208.263c-19.648 0-36.683-14.082-46.023-23.697 9.372-9.617 26.465-23.737 46.023-23.737 5.086 0 13.393.238 20.792.587-1.196 8.954-1.794 18.59-1.794 28.942 0 5.852.232 11.666.665 17.438-7 .278-14.833.467-19.663.467zm213.61 216.906c-.639-.66-1.31-1.405-2.004-2.246l-14.242-17.255-10.552 19.728c-4.586 8.572-10.481 14.972-15.114 19.158-4.614-4.17-10.481-10.551-15.085-19.158l-10.553-19.728-14.242 17.255c-.687.832-1.351 1.571-1.984 2.226-9.517-10.086-24.443-29.194-24.443-49.791 0-2.965.112-6.417.316-10.021 21.916 15.361 45.277 24.164 66.005 24.164 20.743 0 44.112-8.825 66.016-24.223.198 3.62.308 7.09.308 10.08-.002 20.727-14.908 39.767-24.426 49.811zm34.977-109.849c-18.723 21.341-41.633 36.665-61.875 42.054v-44.334l28.563-21.925-18.268-23.797-25.295 19.416-25.295-19.417-18.268 23.797 28.563 21.925v44.339c-20.279-5.385-43.248-20.718-62.032-42.073-29.458-33.491-45.682-77.865-45.682-124.947 0-33.895 7.014-57.342 21.441-71.684 18.996-18.882 49.869-20.584 81.065-20.584 3.441 0 23.425.083 30.087.041 34.46-.207 70.099-.422 91.117 20.47 14.419 14.333 21.429 37.805 21.429 71.756.001 47.103-16.176 91.482-45.55 124.963zm94.837-107.057c-4.895 0-12.876-.194-19.948-.478.431-5.767.662-11.578.662-17.426 0-10.348-.596-19.979-1.787-28.929 7.468-.357 15.923-.6 21.073-.6 19.648 0 36.683 14.082 46.023 23.697-9.372 9.615-26.464 23.736-46.023 23.736z"/></g></svg>