<svg viewBox="1 -48 511.999 511" xmlns="http://www.w3.org/2000/svg"><path d="m508.519531 166.558594-119.503906-143.234375c-1.472656-2.03125-3.082031-3.953125-4.8125-5.757813-.492187-.578125-1.023437-1.101562-1.578125-1.585937-9.929688-9.574219-23.414062-15.480469-38.257812-15.480469h-176.730469c-14.871094 0-28.375 5.921875-38.304688 15.523438-.5.4375-.976562.910156-1.421875 1.425781-1.78125 1.847656-3.433594 3.816406-4.941406 5.898437l-119.488281 143.210938c-2.25 2.695312-3.480469 6.097656-3.480469 9.609375 0 39.277343 31.953125 71.230469 71.234375 71.230469 15.359375 0 29.585937-4.902344 41.230469-13.199219v54.433593c0 40.703126 30.84375 74.324219 70.382812 78.757813 12.152344 29.160156 40.792969 48.707031 73.152344 48.707031s61.003906-19.546875 73.148438-48.710937c39.542968-4.429688 70.382812-38.050781 70.382812-78.753907v-54.4375c11.648438 8.300782 25.875 13.203126 41.234375 13.203126 39.277344 0 71.234375-31.953126 71.234375-71.230469 0-3.511719-1.230469-6.914063-3.480469-9.609375zm-437.285156 50.839844c-21.023437 0-38.421875-15.808594-40.925781-36.164063l82.15625-98.472656v93.40625c.003906 22.734375-18.496094 41.230469-41.230469 41.230469zm184.765625 168.699218c-16.761719 0-31.917969-8.429687-40.878906-21.722656 16.613281-5.140625 30.90625-15.601562 40.878906-29.390625 9.972656 13.789063 24.265625 24.25 40.878906 29.390625-8.957031 13.292969-24.113281 21.722656-40.878906 21.722656zm1.902344-115.605468c-.726563 1.261718-1.398438 2.097656-1.902344 2.609374-.503906-.511718-1.171875-1.347656-1.898438-2.609374l-16.074218-27.832032c-.726563-1.261718-1.113282-2.257812-1.308594-2.953125.695312-.175781 1.753906-.339843 3.210938-.339843h32.140624c1.457032 0 2.515626.164062 3.210938.339843-.191406.695313-.578125 1.691407-1.308594 2.953125zm111.628906 18.140624c0 27.164063-22.097656 49.265626-49.265625 49.265626-23.753906 0-43.632813-16.898438-48.253906-39.304688 4.582031-3.085938 8.640625-7.507812 11.871093-13.101562l16.074219-27.835938c6.652344-11.527344 7.296875-23.632812 1.761719-33.214844-5.53125-9.578125-16.335938-15.074218-29.648438-15.074218h-32.140624c-13.3125 0-24.117188 5.496093-29.648438 15.074218-5.535156 9.582032-4.890625 21.6875 1.765625 33.21875l16.070313 27.832032c3.230468 5.59375 7.289062 10.015624 11.871093 13.101562-4.621093 22.40625-24.5 39.308594-48.253906 39.308594-27.167969 0-49.269531-22.101563-49.269531-49.269532v-232.964843c0-5.132813 1.550781-9.910157 4.195312-13.894531l3.507813-4.203126c4.53125-4.371093 10.6875-7.070312 17.464843-7.070312h176.734376c6.792968 0 12.960937 2.710938 17.496093 7.109375l3.429688 4.113281c2.671875 4 4.234375 8.804688 4.238281 13.976563v.023437zm71.234375-71.234374c-22.734375 0-41.230469-18.496094-41.230469-41.230469v-93.410157l82.15625 98.476563c-2.503906 20.355469-19.902344 36.164063-40.925781 36.164063zm0 0"/><path d="m191.730469 129.03125c-3.949219 0-7.808594 1.597656-10.601563 4.398438-2.800781 2.789062-4.398437 6.648437-4.398437 10.601562 0 3.949219 1.597656 7.816406 4.398437 10.609375 2.792969 2.789063 6.652344 4.390625 10.601563 4.390625s7.820312-1.601562 10.609375-4.390625c2.789062-2.792969 4.390625-6.660156 4.390625-10.609375 0-3.953125-1.601563-7.8125-4.390625-10.601562-2.789063-2.800782-6.660156-4.398438-10.609375-4.398438zm0 0"/><path d="m320.269531 129.03125c-3.949219 0-7.820312 1.597656-10.609375 4.398438-2.789062 2.789062-4.390625 6.648437-4.390625 10.601562 0 3.949219 1.601563 7.816406 4.390625 10.609375 2.789063 2.789063 6.660156 4.390625 10.609375 4.390625s7.808594-1.601562 10.601563-4.390625c2.800781-2.792969 4.398437-6.660156 4.398437-10.609375 0-3.953125-1.597656-7.8125-4.398437-10.601562-2.792969-2.800782-6.652344-4.398438-10.601563-4.398438zm0 0"/></svg>