<svg id="Layer_1" enable-background="new 0 0 511.999 511.999" height="512" viewBox="0 0 511.999 511.999" width="512" xmlns="http://www.w3.org/2000/svg"><path d="m510.999 180h-45c-2.545 0-3.947 0-6.13-4.677-3.022-6.477-4.883-17.639-6.852-29.456-2.164-12.986-4.718-28.265-9.783-43.948 23.565-17.355 37.764-44.957 37.764-74.736v-27.183h-450v27.184c0 29.779 14.199 57.381 37.764 74.735-5.065 15.683-7.618 30.963-9.782 43.948-1.97 11.817-3.83 22.979-6.853 29.456-2.18 4.677-3.583 4.677-6.128 4.677h-45v15c0 17.575 6.092 33.744 16.254 46.543.396 12.889 4.225 34.573 13.88 56.652 12.286 28.095 37.931 66.157 90.666 91.714 2.045 19.052 7.992 39.198 17.023 57.067 8.928 17.664 24.931 41.4 50.469 54.169l21.708 10.854v-44.116c13.543 7.813 29.069 12.117 45 12.117s31.457-4.304 45-12.117v44.116l21.708-10.854c20.536-10.268 37.771-26.019 49.842-45.549 12.07-19.53 18.45-41.99 18.45-64.949v-1.123c52.279-25.586 77.723-63.414 89.93-91.366 9.633-22.056 13.44-43.736 13.823-56.624 10.158-12.798 16.247-28.963 16.247-46.534zm-60.062-150c-.745 16.73-8.11 32.25-20.174 43.371-4.33-7.527-9.55-14.881-15.929-21.84-7.484-8.165-16.103-15.329-25.863-21.531zm-389.875 0h61.965c-9.76 6.202-18.378 13.366-25.863 21.531-6.379 6.959-11.599 14.313-15.929 21.84-12.063-11.121-19.428-26.641-20.173-43.371zm239.937 339.647c-11.313 12.811-27.796 20.353-45 20.353s-33.687-7.542-45-20.353v-27.136c13.802-4.835 28.819-12.932 45.005-24.293 16.13 11.292 31.143 19.305 44.995 24.041zm27.994-52.311c-14.824-.002-34.759-8.638-57.994-25.264v-31.484l42.607-49.245c27.049 5.809 47.393 29.897 47.393 58.656 0 16.924-5.069 37.531-19.295 44.612-3.665 1.825-7.919 2.725-12.711 2.725zm-72.882-85.39-18.621-21.946h37.609zm-56.963-20.765 41.851 49.325v31.574c-30.967 22.216-55.781 30.468-70.293 23.246-15.588-7.758-19.707-33.041-19.707-45.326 0-29.028 20.722-53.302 48.149-58.819zm-48.149 164.465v-37.223c2 1.381 4.104 2.648 6.34 3.761 7.22 3.593 15.118 5.461 23.66 5.653v109.068c-18.941-21.792-30-55.067-30-81.259zm105 74.354c-17.204 0-33.687-7.542-45-20.353v-21.764c13.543 7.813 29.069 12.117 45 12.117s31.457-4.304 45-12.117v21.764c-11.313 12.811-27.795 20.353-45 20.353zm75 9.367v-112.021c8.654-.252 16.687-2.201 24.071-5.876 2.053-1.022 4.03-2.177 5.929-3.451v52.627c0 26.664-11.076 51.314-30 68.721zm60-103.865v-85.502c0-49.626-40.374-90-90-90h-90c-49.626 0-90 40.374-90 90v85.497c-27.499-16.275-47.896-38.328-60.779-65.79-4.055-8.643-6.846-16.74-8.777-23.856 7.7 2.675 15.957 4.149 24.556 4.149h15v-30h-15c-19.556 0-36.239-12.539-42.43-30h12.43c10.517 0 24.833-3.815 33.315-21.99 4.755-10.19 6.842-22.712 9.259-37.211 4.344-26.066 9.269-55.611 30.706-78.997 25.785-28.128 70.506-41.802 136.72-41.802s110.936 13.674 136.721 41.802c21.438 23.386 26.361 52.93 30.706 78.997 2.416 14.499 4.503 27.021 9.258 37.211 8.482 18.175 22.799 21.99 33.315 21.99h12.43c-6.19 17.461-22.873 30-42.43 30h-15v30h15c8.613 0 16.883-1.478 24.593-4.162-1.922 7.111-4.705 15.203-8.75 23.837-12.869 27.467-33.287 49.532-60.843 65.827z"/><path d="m132.458 105h67.082v30h-67.082z" transform="matrix(-.894 -.447 .447 -.894 260.808 301.568)"/><path d="m330.999 86.459h30v67.082h-30z" transform="matrix(-.447 -.894 .894 -.447 393.398 483.138)"/></svg>