<svg id="Capa_1" enable-background="new 0 0 512 512" height="512" viewBox="0 0 512 512" width="512" xmlns="http://www.w3.org/2000/svg"><g><path d="m81.011 387.898c15.216 95.942 73.662 121.821 76.186 122.893 9.892 4.202 20.872-3.07 20.872-13.783v-73.007c50.212 24.415 108.329 23.111 155.86 0v73.007c0 10.704 10.97 17.987 20.872 13.783 2.523-1.072 60.967-26.95 76.186-122.885 39.202-39.819 42.286-100.388 11.994-143.468 2.249-35.667-7.515-76.896-19.681-109.225-70.315-186.83-272.622-173.655-334.642.118-12.202 32.431-21.88 73.583-19.641 109.108-31.721 45.111-25.381 105.461 11.994 143.459zm21.071-135.365c15.756-13.512 36.847-20.954 59.387-20.954h39.398c3.908 7.841 9.572 15.506 16.942 22.886 6.546 6.554 14.5 11.202 23.19 13.696v95.218c-15.341 2.239-29.842 7.874-41.885 16.42-31.28 22.182-73.624 10.069-93.838-10.116-37.701-34.762-32.084-92.371-3.194-117.15zm184.202-38.836c-2.098 6.331-6.546 12.93-13.222 19.614-.001 0-.001 0-.001 0-9.342 9.355-24.669 9.353-34.01 0-6.907-6.915-11.423-13.728-13.425-20.249-.712-2.319.331-5.033 2.48-6.454 16.75-11.081 38.516-11.156 55.298-.393 2.644 1.696 3.802 4.702 2.88 7.482zm-138.215 253.257c-14.328-15.021-24.262-34.358-30.546-54.221 9.704 4.101 19.977 6.831 30.546 8.085zm66.039-61.099c3.567-2.372 16.423-12.75 39.211-13.566 4.227.763 6.531-1.016 18.724 1.705 14.449 3.224 22.259 9.475 25.847 11.861-27.428 8.019-56.353 8.02-83.782 0zm149.821 61.097v-46.13c10.588-1.244 20.842-3.959 30.521-8.044-6.289 19.863-16.129 39.098-30.521 54.174zm-51.04-87.15c-12.047-8.548-26.549-14.184-41.89-16.423v-95.186c8.735-2.486 16.73-7.145 23.305-13.728h-.001c7.368-7.376 13.038-15.045 16.946-22.887h39.28c25.856 0 49.712 9.799 65.567 26.898 11.277 14.564 17.243 32.009 17.243 50.495 0 66.513-75.096 102.995-120.45 70.831zm-167.218-288.946c25.511-35.287 52.779-50.528 85.531-57.76 23.184-5.112 53.613-2.592 80.054 9.937 65.543 31.074 96.345 119.882 101.346 174.821-32.952-19.041-60.496-16.231-97.491-16.231-2.43-8.261-7.781-15.667-15.493-20.613-26.735-17.145-61.354-17.055-88.079.625-7.273 4.811-12.353 12-14.683 19.989-37.196 0-64.562-2.785-97.461 16.251 3.815-41.945 21.23-92.162 46.276-127.019z"/><ellipse cx="161.666" cy="156.566" rx="15" ry="14.978"/><ellipse cx="350.448" cy="156.566" rx="15" ry="14.978"/></g></svg>