<?xml version="1.0" encoding="iso-8859-1"?>
<!-- Generator: Adobe Illustrator 19.0.0, SVG Export Plug-In . SVG Version: 6.00 Build 0)  -->
<svg version="1.1" id="Capa_1" xmlns="http://www.w3.org/2000/svg" xmlns:xlink="http://www.w3.org/1999/xlink" x="0px" y="0px"
	 viewBox="0 0 512 512" style="enable-background:new 0 0 512 512;" xml:space="preserve">
<g>
	<g>
		<path d="M481.752,198.544c-18.937-28.72-42.828-34.748-59.535-34.748c-2.811,0-5.47,0.168-7.943,0.444l3.364-11.288
			c0.889-2.981,0.338-6.207-1.488-8.727c-1.827-2.519-4.723-4.044-7.833-4.125c-18.511-0.494-34.801,4.671-52.065,10.151
			c-18.863,5.989-39.999,12.674-69.386,13.931l-0.732-55.18H396c0.01,0,0.014,0,0.02,0c5.523,0,10-4.453,10-9.975
			c0-2.789-1.142-5.299-2.983-7.114C397.503,85.908,345.531,31.997,264,31.997c-22.13,0-147.444,9.632-152.768,10.042
			c-5.083,0.392-9.059,4.546-9.227,9.642c-0.168,5.096,3.524,9.502,8.571,10.229c6.507,0.936,13.12,1.756,19.515,2.549
			c38.049,4.717,74.042,9.188,95.866,37.808l-0.822,61.942c-29.385-1.257-50.521-7.967-69.386-13.956
			c-17.268-5.481-33.527-10.657-52.065-10.151c-3.11,0.081-6.005,1.606-7.832,4.125c-1.827,2.52-2.377,5.745-1.488,8.727
			l3.363,11.288c-2.473-0.276-5.133-0.444-7.942-0.444c-16.708,0-40.6,6.027-59.535,34.743C10.177,228.977,0,279.018,0,347.268
			c0,4.497,3.003,8.439,7.338,9.637c4.336,1.199,8.938-0.647,11.246-4.508c0.49-0.819,49.581-81.871,102.28-81.871
			c15.978,0,30.606,7.447,44.721,22.766c15.664,17,30.026,43.22,42.773,78.346l-21.503,21.366H160c-5.523,0-10,4.478-10,10
			c0,5.522,4.477,10,10,10h6.872l-9.947,10.111c-3.903,3.907-3.901,10.317,0.006,14.221c1.952,1.951,4.51,2.965,7.068,2.965
			c2.561,0,5.122-0.958,7.074-2.912l9.926-9.915v8.872c0,5.522,4.477,10,10,10c5.523,0,10-4.478,10-10v-28.889l14.849-14.861
			l30.805,80.964c1.476,3.88,5.195,6.444,9.346,6.444c4.151,0,7.87-2.564,9.347-6.444l30.254-79.514l14.4,14.412v26.887
			c0,5.522,4.478,10,10,10c5.522,0,10-4.478,10-10v-6.87l9.926,9.935c1.953,1.954,4.514,2.932,7.074,2.932
			c2.558,0,5.116-0.976,7.068-2.926c3.906-3.903,3.909-10.392,0.006-14.299l-9.947-10.112H353c5.522,0,10-4.478,10-10
			c0-5.522-4.478-10-10-10h-28.855l-21.037-20.898c12.877-35.857,27.423-62.648,43.307-79.886
			c14.118-15.323,28.746-22.732,44.721-22.732c52.706,0,101.79,81.071,102.276,81.886c2.306,3.863,6.905,5.722,11.245,4.526
			c4.338-1.195,7.343-5.137,7.343-9.636C512,279.018,501.823,228.985,481.752,198.544z M192.664,56.099
			c26.521-1.847,52.596-3.538,65.667-4.006l7.047,11.991c1.863,3.17,5.201,4.935,8.631,4.935c1.721,0,3.466-0.445,5.058-1.381
			c4.761-2.798,6.353-8.927,3.554-13.688l-0.567-0.965c38.942,4.382,69.31,22.102,87.482,36.018h-128.5
			C227.814,72.003,211.06,62.315,192.664,56.099z M391.136,250.526c-41.585,0-76.376,36.033-103.581,107.17l-0.481-0.481
			c-3.904-3.907-10.236-3.909-14.143-0.006c-3.907,3.903-3.909,10.235-0.006,14.143l7.177,7.184L256,441.881l-24.33-63.944
			c-0.099-0.296-0.198-0.586-0.297-0.881l6.701-6.707c3.903-3.907,3.901-10.239-0.006-14.143c-3.906-3.904-10.239-3.9-14.142,0.006
			l-0.036,0.036c-27.123-70.179-61.724-105.724-103.025-105.724c-41.561,0-78.542,37.004-99.997,64.01
			c2.655-47.485,11.394-82.718,26.078-104.986c11.269-17.089,25.682-25.753,42.838-25.753c10.551,0,18.313,3.4,18.336,3.411
			c3.569,1.641,7.766,1.042,10.731-1.533c2.966-2.573,4.151-6.646,3.03-10.408l-4.274-14.344c10.354,1.492,20.65,4.761,32.089,8.393
			c21.193,6.729,47.568,15.102,85.304,15.102c5.471,0,9.927-4.421,9.999-9.892l0.869-65.521h20.264l0.869,65.521
			c0.072,5.471,4.528,9.879,9.999,9.879c37.738,0,64.111-8.367,85.303-15.095c11.438-3.632,21.736-6.897,32.091-8.389l-4.274,14.345
			c-1.121,3.764,0.037,7.848,3.004,10.421c2.965,2.573,7.135,3.184,10.705,1.544c0.077-0.034,7.835-3.434,18.389-3.434
			c17.155,0,31.568,8.666,42.838,25.758c14.684,22.269,23.423,57.502,26.078,104.979
			C469.678,287.528,432.697,250.526,391.136,250.526z"/>
	</g>
</g>
<g>
	<g>
		<path d="M241.507,291.224c-2.772-2.775-8.18-15.849-10.986-35.102c-3.042-20.87-0.566-32.097,0.986-33.969
			c3.904-3.906,3.9-10.238-0.006-14.142c-3.908-3.905-10.239-3.901-14.142,0.007c-9.99,9.999-9.191,32.742-6.762,50.06
			c0.831,5.926,5.546,36.056,16.762,47.281c1.953,1.955,4.513,2.933,7.074,2.933c2.558,0,5.116-0.976,7.068-2.926
			C245.408,301.463,245.411,295.131,241.507,291.224z"/>
	</g>
</g>
<g>
	<g>
		<path d="M294.641,208.018c-3.905-3.908-10.256-3.932-14.164-0.03c-3.906,3.904-3.931,10.213-0.027,14.12
			c1.596,1.917,4.071,13.144,1.03,34.014c-2.807,19.253-8.215,32.327-10.987,35.102c-3.903,3.907-3.9,10.239,0.006,14.143
			c1.953,1.951,4.511,2.926,7.068,2.926c2.561,0,5.121-0.978,7.074-2.932c11.216-11.227,15.931-41.356,16.762-47.282
			C303.833,240.761,304.632,218.018,294.641,208.018z"/>
	</g>
</g>
<g>
</g>
<g>
</g>
<g>
</g>
<g>
</g>
<g>
</g>
<g>
</g>
<g>
</g>
<g>
</g>
<g>
</g>
<g>
</g>
<g>
</g>
<g>
</g>
<g>
</g>
<g>
</g>
<g>
</g>
</svg>
