<?xml version="1.0" encoding="iso-8859-1"?>
<!-- Generator: Adobe Illustrator 19.0.0, SVG Export Plug-In . SVG Version: 6.00 Build 0)  -->
<svg version="1.1" id="Layer_1" xmlns="http://www.w3.org/2000/svg" xmlns:xlink="http://www.w3.org/1999/xlink" x="0px" y="0px"
	 viewBox="0 0 511.999 511.999" style="enable-background:new 0 0 511.999 511.999;" xml:space="preserve">
<g>
	<g>
		<path d="M390.779,10.143L334.411,52.42c-53.585-25.659-85.699-28.967-154.705,1.605L121.205,10.15
			c-35.492-26.618-85.611,2.68-79.951,46.766c2.212,17.235,7.041,31.074,14.766,42.308c6.333,9.211,14.734,16.766,25.077,22.579
			c-4.647,9.839-7.406,21.62-7.406,36.047v103.507c0,40.347,28.86,74.103,66.949,81.866v69.521
			c0,30.279,20.442,55.833,48.325,63.485c15.534,22.221,41.179,35.769,68.53,35.769c27.35,0,52.996-13.549,68.529-35.769
			c27.884-7.651,48.437-33.205,48.437-63.485v-69.521c38.089-7.762,66.838-41.518,66.838-81.866V157.85
			c0-13.178-3.038-25.802-8.609-37.087c21.767-12.96,34.272-34.081,38.071-64.15C476.314,12.658,426.161-16.394,390.779,10.143z
			 M74.401,52.662c-1.895-14.759,14.91-24.661,26.753-15.777l44.47,33.353c-14.772,7.327-30.169,14.526-43.064,24.968
			C85.362,87.794,77.326,75.448,74.401,52.662z M257.494,478.581c-9.366,0-18.388-2.669-26.154-7.421
			c12.401-8.172,15.188-16.833,26.154-38.761c10.98,21.963,13.754,30.592,26.152,38.761
			C275.881,475.912,266.859,478.581,257.494,478.581z M308.624,445.162h-0.156c-4.459,0-8.468-2.479-10.462-6.465l-23.803-47.606
			v-39.264l28.524-28.524c6.526-6.526,6.526-17.105,0-23.63c-6.524-6.526-17.105-6.526-23.63,0l-21.604,21.603l-21.604-21.603
			c-6.524-6.526-17.105-6.526-23.63,0c-6.526,6.526-6.526,17.105,0,23.63l28.635,28.524v39.264l-23.916,47.606
			c-1.993,3.988-6.003,6.465-10.462,6.465h-0.156c-17.875,0-32.416-14.542-32.416-32.416v-84.55
			c0-46.068,37.479-83.547,83.547-83.547c46.068,0,83.658,37.479,83.658,83.547v84.55h0.004
			C341.152,430.62,326.498,445.162,308.624,445.162z M407.99,261.358c0,22.362-14.832,41.346-35.091,47.783
			c-9.127-55.463-57.398-97.912-115.405-97.912c-58.007,0-106.279,42.449-115.405,97.912c-20.258-6.438-34.979-25.421-34.979-47.783
			V157.851c0-32.919,20.624-41.293,55.739-58.851c107.183-53.593,112.392-38.448,217.319,14.015
			c17.093,8.546,27.822,25.727,27.822,44.836V261.358z M437.606,52.424c-2.777,21.981-10.154,34.13-25.795,41.687
			c-9.799-8.267-14.301-9.611-44.075-24.911l43.096-32.322C422.61,28.044,439.454,37.798,437.606,52.424z"/>
	</g>
</g>
<g>
	<g>
		<circle cx="156.244" cy="194.676" r="16.709"/>
	</g>
</g>
<g>
	<g>
		<circle cx="356.757" cy="194.676" r="16.709"/>
	</g>
</g>
<g>
</g>
<g>
</g>
<g>
</g>
<g>
</g>
<g>
</g>
<g>
</g>
<g>
</g>
<g>
</g>
<g>
</g>
<g>
</g>
<g>
</g>
<g>
</g>
<g>
</g>
<g>
</g>
<g>
</g>
</svg>
