<svg id="Capa_1" enable-background="new 0 0 512 512" height="512" viewBox="0 0 512 512" width="512" xmlns="http://www.w3.org/2000/svg"><g><path d="m436.138 89.32 27.422-10.492c5.021-1.921 8.631-6.383 9.46-11.695.83-5.312-1.247-10.661-5.443-14.022l-26.118-20.918c-25.918-20.76-58.541-32.193-91.858-32.193h-1.014c-23.835 0-47.477 6.064-68.371 17.538l-24.216 13.298-23.177-12.729c-21.574-11.845-45.985-18.107-70.595-18.107-33.207 0-65.768 11.433-91.686 32.19l-26.12 20.92c-4.196 3.361-6.273 8.711-5.443 14.022.83 5.312 4.439 9.773 9.46 11.695l27.423 10.493c-47.936 41.049-75.862 100.978-75.862 165.137v.543c0 6.171 3.779 11.712 9.524 13.965l36.268 14.223c-23.16 59.486-2.138 128.276 51.888 164.293 5.949 3.967 13.871 3.183 18.927-1.874l16.763-16.763c12.032 17.187 26.519 32.396 43.239 45.372 21.859 16.966 46.471 29.288 73.153 36.626 0 0 4.901 1.158 6.239 1.158s6.241-1.159 6.241-1.159c26.68-7.337 51.292-19.659 73.151-36.625 16.72-12.977 31.207-28.186 43.239-45.372l16.763 16.763c5.055 5.056 12.978 5.842 18.927 1.874 54.025-36.017 75.047-104.807 51.888-164.293l36.268-14.223c5.743-2.253 9.522-7.794 9.522-13.965v-.543c0-64.16-27.926-124.088-75.862-165.137zm4.386 171.715c-3.922 1.538-7.016 4.654-8.527 8.587-1.51 3.933-1.297 8.318.586 12.086l1.626 3.253c22.365 44.73 10.649 98.63-26.794 130.241l-20.809-20.809c-3.306-3.306-7.962-4.878-12.598-4.261-4.633.62-8.713 3.366-11.032 7.425-23.518 41.155-61.463 70.888-106.977 83.877-45.516-12.99-83.459-42.722-106.977-83.877-2.319-4.059-6.399-6.805-11.032-7.425-.665-.089-1.33-.133-1.992-.133-3.95 0-7.774 1.562-10.605 4.394l-20.809 20.809c-37.443-31.611-49.16-85.511-26.794-130.241l1.626-3.253c1.884-3.768 2.097-8.153.586-12.086s-4.605-7.049-8.527-8.587l-41.234-16.17c3.02-59.745 34.133-114.291 84.528-147.319 4.711-3.088 7.295-8.554 6.691-14.153s-4.293-10.39-9.553-12.402l-28.3-10.829 5.689-4.556c20.617-16.512 46.517-25.606 72.932-25.606 19.576 0 38.995 4.98 56.155 14.403l30.397 16.693c4.498 2.471 9.944 2.471 14.441 0l31.437-17.263c16.479-9.05 35.128-13.833 53.929-13.833h1.014c26.524 0 52.487 9.095 73.104 25.608l5.687 4.555-28.3 10.827c-5.26 2.013-8.95 6.803-9.553 12.402s1.98 11.065 6.691 14.153c50.394 33.028 81.508 87.574 84.527 147.319z"/><path d="m354.868 97.218c-17.432-11.621-39.56-12.385-57.75-1.989-25.362 14.493-56.873 14.493-82.234 0-18.189-10.394-40.318-9.633-57.75 1.989-28.888 19.257-46.134 51.481-46.134 86.199 0 31.644 14.172 61.13 38.881 80.897l3.662 2.93-8.609 8.608c-8.985 8.987-13.934 20.934-13.934 33.641 0 15.505 7.582 30.072 20.282 38.967 5.227 3.661 11.065 6.159 17.137 7.485l4.365 34.434c.058.459.138.915.238 1.367 3.235 14.56 20.094 19.515 34.419 22.205 13.151 2.47 30.396 3.83 48.559 3.83s35.408-1.36 48.559-3.83c14.326-2.69 31.184-7.646 34.419-22.205.101-.452.18-.908.238-1.367l4.363-34.42c6.073-1.326 11.911-3.837 17.138-7.499 12.7-8.895 20.282-23.462 20.282-38.967 0-12.707-4.949-24.654-13.935-33.641l-8.608-8.608 3.662-2.93c24.71-19.767 38.882-49.253 38.882-80.897 0-34.718-17.246-66.942-46.132-86.199zm-44.782 284.406c-7.143 2.81-26.504 6.157-54.086 6.157s-46.943-3.348-54.086-6.157l-3.635-28.674 57.721-20.989 57.721 20.989zm33.291-140.735-16.748 13.398c-3.332 2.665-5.371 6.623-5.606 10.884-.236 4.26 1.354 8.419 4.371 11.436l20.458 20.459c3.32 3.319 5.148 7.733 5.148 12.428 0 5.813-2.731 11.06-7.492 14.395-4.761 3.336-10.625 4.11-16.089 2.122l-56.419-20.517v-42.285l19.371-15.496c6.469-5.175 7.518-14.614 2.342-21.083-5.175-6.47-14.613-7.52-21.083-2.343l-15.63 12.504-15.629-12.504c-6.47-5.176-15.909-4.126-21.083 2.343-5.175 6.469-4.126 15.908 2.342 21.083l19.37 15.496v42.285l-56.419 20.516c-5.463 1.987-11.328 1.213-16.088-2.122-4.761-3.335-7.492-8.581-7.492-14.395 0-4.694 1.828-9.108 5.147-12.428l20.459-20.459c3.017-3.017 4.606-7.176 4.371-11.436-.236-4.261-2.275-8.219-5.606-10.884l-16.749-13.398c-17.555-14.043-27.623-34.991-27.623-57.471 0-24.664 12.252-47.557 32.774-61.238 4.205-2.804 9.012-4.215 13.833-4.215 4.254 0 8.52 1.1 12.391 3.312 34.544 19.74 77.46 19.74 112.004 0 8.26-4.72 18.309-4.373 26.225.903 20.521 13.681 32.773 36.574 32.773 61.238 0 22.48-10.068 43.428-27.623 57.472z"/><path d="m196 161c-8.284 0-15 6.716-15 15v20c0 8.284 6.716 15 15 15s15-6.716 15-15v-20c0-8.284-6.716-15-15-15z"/><path d="m316 161c-8.284 0-15 6.716-15 15v20c0 8.284 6.716 15 15 15s15-6.716 15-15v-20c0-8.284-6.716-15-15-15z"/></g></svg>