<svg height="511pt" viewBox="-14 1 511 511.999" width="511pt" xmlns="http://www.w3.org/2000/svg"><path d="m196.773438 421.035156h29.988281v29.988282h-29.988281zm0 0"/><path d="m256.75 421.035156h29.988281v29.988282h-29.988281zm0 0"/><path d="m192.382812 245.496094 29.984376 29.988281-21.203126 21.203125-29.988281-29.988281zm0 0"/><path d="m282.339844 296.695312-21.203125-21.203124 29.988281-29.988282 21.203125 21.203125zm0 0"/><path d="m194.777344 121.859375c-.980469.113281-1.960938.238281-2.9375.382813-14.824219-28.90625-33.523438-45.867188-41.679688-52.355469-35.332031-29.847657-72.742187-37.058594-118.027344-38.6875l-31.632812-1.136719 19.15625 25.195312c36.171875 47.578126 80.195312 57.898438 82.148438 155.859376h-54.972657v14.996093c0 29.171875 11.867188 55.8125 31.378907 74.96875h-16.382813v14.996094c0 47.257813 31.125 87.890625 75.507813 100.75 5.375 53.378906 50.152343 95.171875 104.417968 95.171875 54.269532 0 99.046875-41.792969 104.417969-95.167969 44.386719-12.863281 75.511719-53.492187 75.511719-100.753906v-14.996094h-16.382813c19.511719-19.15625 31.375-45.796875 31.375-74.96875v-14.996093h-55.214843c1.953124-97.96875 45.980468-108.285157 82.144531-155.859376l19.160156-25.195312-31.632813 1.136719c-45.285156 1.628906-82.695312 8.839843-118.027343 38.6875-8.152344 6.484375-26.84375 23.4375-41.664063 52.320312-.898437-.128906-1.804687-.242187-2.710937-.347656l-46.976563-121.859375zm61.542968-.703125h-29.128906l14.5625-37.785156zm-187.679687-56.515625c23.085937 3.980469 43.113281 12.007813 62.320313 28.285156l.390624.316407c5.984376 4.734374 19.472657 16.875 31.171876 37.75-13.925782 6.511718-26.386719 16.109374-36.46875 28.359374-3.054688-13.785156-7.300782-26.273437-12.8125-37.5625-11.742188-24.0625-26.871094-39.476562-44.601563-57.148437zm34.515625 176.464844c.511719 3.496093 1.1875 6.988281 2.058594 10.464843l10.015625 40.070313c-18.945313-10.53125-32.5625-28.929687-36.921875-50.535156zm-9.851562 89.964843h31.785156l11.707031 46.828126v6.941406c-22.34375-9.679688-38.644531-29.738282-43.492187-53.769532zm223.421874 74.972657c0 41.886719-33.632812 75.96875-74.972656 75.96875-41.335937 0-74.96875-34.082031-74.96875-75.96875v-31.835938l-32.480468-129.910156c-11.820313-47.289063 23.910156-93.152344 72.734374-93.152344h69.433594c48.742188 0 84.570313 45.785157 72.730469 93.152344l-32.476563 129.910156zm29.988282-21.203125v-6.941406l11.707031-46.835938h31.78125c-4.84375 24.027344-21.148437 44.097656-43.488281 53.777344zm21.5625-93.199219 10.015625-40.082031c.871093-3.476563 1.550781-6.964844 2.0625-10.460938h24.84375c-4.359375 21.605469-17.976563 40.011719-36.921875 50.542969zm-16.363282-198.398437.386719-.316407c19.210938-16.277343 39.238281-24.304687 62.324219-28.285156-18.148438 18.03125-33.011719 33.402344-44.601562 57.148437-5.480469 11.226563-9.710938 23.636719-12.757813 37.324219-10.097656-12.195312-22.558594-21.738281-36.472656-28.210937 11.683593-20.820313 25.148437-32.929688 31.121093-37.660156zm0 0"/></svg>