<?xml version="1.0" encoding="iso-8859-1"?>
<!-- Generator: Adobe Illustrator 19.0.0, SVG Export Plug-In . SVG Version: 6.00 Build 0)  -->
<svg version="1.1" id="Capa_1" xmlns="http://www.w3.org/2000/svg" xmlns:xlink="http://www.w3.org/1999/xlink" x="0px" y="0px"
	 viewBox="0 0 512 512" style="enable-background:new 0 0 512 512;" xml:space="preserve">
<g>
	<g>
		<circle cx="286" cy="271" r="15"/>
	</g>
</g>
<g>
	<g>
		<path d="M467,196H173.027c-26.655,0-48.78-19.768-52.482-45.414C138.914,136.503,150,114.445,150,91V31c0-8.284-6.716-15-15-15
			c-24.508,0-46.306,11.818-60,30.052C61.306,27.818,39.508,16,15,16C6.716,16,0,22.716,0,31v60c0,23.676,11.306,45.937,30,60v60
			c0,54.43,19.917,107.015,56.081,148.066c32.812,37.246,76.779,62.65,124.919,72.43V481c0,8.284,6.716,15,15,15
			c36.459,0,66.91-26.154,73.613-60.683C305.059,435.771,310.534,436,316,436c52.517,0,101.909-20.53,139.079-57.807
			c36.753-36.859,57.069-85.823,56.92-137.765C511.929,215.93,491.742,196,467,196z M433.835,357.01
			C402.335,388.602,360.486,406,316,406c-1.689,0-3.379-0.035-5.069-0.086c27.439-22.285,45.254-54.781,49.226-90.014h103.675
			C456.123,330.815,446.068,344.742,433.835,357.01z M475.729,286H346c-8.284,0-15,6.716-15,15
			c0,37.371-20.121,72.226-52.511,90.962c-4.635,2.681-7.489,7.629-7.489,12.984V421c0,19.556-12.539,36.239-30,42.43v-44.556
			c0-7.464-5.487-13.792-12.876-14.849C132.277,390.315,60,307.332,60,211v-68.027c0-5.354-2.854-10.303-7.489-12.984
			C38.626,121.956,30,107.017,30,91V48.57C47.461,54.761,60,71.444,60,91c0,8.284,6.716,15,15,15s15-6.716,15-15
			c0-19.556,12.539-36.239,30-42.43V91c0,16.017-8.626,30.957-22.511,38.989C92.854,132.67,90,137.619,90,142.973
			C90,188.754,127.246,226,173.027,226H467c8.107,0,14.977,6.646,14.999,14.514C482.044,256.105,479.899,271.378,475.729,286z"/>
	</g>
</g>
<g>
	<g>
		<path d="M436,16c-20.723,0-38.209,14.085-43.414,33.181C387.449,47.136,381.856,46,376,46c-24.813,0-45,20.187-45,45
			c0,8.284,6.716,15,15,15s15-6.716,15-15c0-8.271,6.729-15,15-15s15,6.729,15,15v60c0,8.284,6.716,15,15,15s15-6.716,15-15
			c0-10.534,0-75.727,0-90c0-8.271,6.729-15,15-15s15,6.729,15,15c0,8.284,6.716,15,15,15s15-6.716,15-15
			C481,36.187,460.813,16,436,16z"/>
	</g>
</g>
<g>
</g>
<g>
</g>
<g>
</g>
<g>
</g>
<g>
</g>
<g>
</g>
<g>
</g>
<g>
</g>
<g>
</g>
<g>
</g>
<g>
</g>
<g>
</g>
<g>
</g>
<g>
</g>
<g>
</g>
</svg>
