<svg id="Capa_1" enable-background="new 0 0 512 512" height="512" viewBox="0 0 512 512" width="512" xmlns="http://www.w3.org/2000/svg"><g><path d="m472 0c-21.562 0-39.194 17.148-39.973 38.523l-16.204-9.723c-6.426-3.855-14.238-4.865-21.434-2.77s-13.245 7.141-16.597 13.845l-.776 1.553c-4.691 9.383-3.488 20.74 3.065 28.934l19.526 24.408c1.591 1.989 2.291 4.476 1.97 7.002s-1.62 4.759-3.657 6.287c-2.026 1.52-4.521 2.145-7.023 1.756-2.502-.387-4.691-1.735-6.164-3.797l-31.94-44.715c-5.056-7.077-13.267-11.303-21.965-11.303-7.83 0-15.262 3.393-20.392 9.308s-7.437 13.752-6.33 21.502l4.008 28.055c-15.379-4.541-32.779-6.865-52.114-6.865s-36.735 2.324-52.114 6.865l4.008-28.055c1.107-7.75-1.2-15.588-6.33-21.503-5.13-5.914-12.563-9.307-20.392-9.307-8.698 0-16.909 4.226-21.965 11.304l-31.94 44.716c-1.472 2.061-3.661 3.409-6.164 3.796-2.503.389-4.998-.236-7.023-1.756-2.038-1.528-3.336-3.761-3.657-6.287-.321-2.527.379-5.014 1.97-7.002l19.528-24.409c6.553-8.192 7.756-19.549 3.064-28.933l-.777-1.553c-3.352-6.704-9.401-11.75-16.597-13.845-7.193-2.095-15.007-1.086-21.434 2.77l-16.204 9.722c-.779-21.375-18.411-38.523-39.973-38.523-22.056 0-40 17.944-40 40v59.689c0 39.486 21.297 76.186 55.581 95.776 16.64 9.509 35.565 14.535 54.73 14.535h12.114c-.942 7.728-1.425 15.837-1.425 24.333 0 47.747 14.718 102.369 38.729 144.765-5.609 11.618-8.729 24.436-8.729 37.902 0 52.383 47.103 95 105 95s105-42.617 105-95c0-13.466-3.12-26.284-8.729-37.901 24.011-42.396 38.729-97.018 38.729-144.766 0-8.496-.483-16.606-1.425-24.333h12.114c19.165 0 38.09-5.026 54.729-14.535 34.285-19.59 55.582-56.29 55.582-95.776v-59.689c0-22.056-17.944-40-40-40zm-361.689 180c-13.953 0-27.731-3.659-39.846-10.582-24.96-14.263-40.465-40.981-40.465-69.729v-59.689c0-5.514 4.486-10 10-10s10 4.486 10 10v25c0 5.404 2.907 10.391 7.609 13.053s10.474 2.59 15.108-.191l28.43-17.058-12.18 15.226c-6.708 8.385-9.657 18.869-8.305 29.521 1.353 10.652 6.828 20.066 15.418 26.509 8.542 6.407 19.058 9.036 29.611 7.403 10.552-1.633 19.782-7.317 25.988-16.006l24.772-34.682-4.977 34.844c-19.976 13.118-34.262 32.051-42.426 56.382h-18.737zm145.689 302c-41.355 0-75-29.159-75-65s33.645-65 75-65 75 29.159 75 65-33.645 65-75 65zm76.626-129.877c-19.173-18.526-46.429-30.123-76.626-30.123s-57.453 11.597-76.626 30.123c-17.744-35.984-28.374-79.374-28.374-117.79 0-36.646 10.029-63.673 29.81-80.331 17.336-14.599 42.634-22.002 75.19-22.002s57.854 7.403 75.19 22.003c19.78 16.658 29.81 43.685 29.81 80.331 0 38.415-10.63 81.805-28.374 117.789zm149.374-252.434c0 28.748-15.505 55.466-40.466 69.729-12.114 6.923-25.892 10.582-39.845 10.582h-18.737c-8.164-24.331-22.45-43.264-42.426-56.382l-4.977-34.843 24.772 34.681c6.206 8.689 15.436 14.374 25.988 16.007 10.553 1.633 21.068-.996 29.611-7.403 8.59-6.442 14.065-15.856 15.418-26.509 1.353-10.652-1.597-21.136-8.305-29.521l-12.181-15.226 28.43 17.058c4.634 2.78 10.405 2.853 15.108.191s7.61-7.649 7.61-13.053v-25c0-5.514 4.486-10 10-10s10 4.486 10 10z"/><circle cx="301" cy="222" r="15"/><circle cx="211" cy="222" r="15"/><circle cx="294" cy="429" r="15"/><circle cx="218" cy="429" r="15"/></g></svg>