<svg id="Capa_1" enable-background="new 0 0 512 512" height="512" viewBox="0 0 512 512" width="512" xmlns="http://www.w3.org/2000/svg"><g><circle cx="226.216" cy="424.122" r="15"/><circle cx="285.784" cy="424.122" r="15"/><circle cx="189.239" cy="304.122" r="15"/><circle cx="322.761" cy="304.122" r="15"/><path d="m455.309 109.739c-1.047-6.338-6.015-11.305-12.353-12.353-2.518-.418-62.001-9.809-94.894 23.084-2.89 2.89-5.527 6.089-7.928 9.546-11.758-6.757-26.142-12.324-35.692-15.238l-34.186-104.474c-4.495-13.736-24.016-13.742-28.512 0l-34.187 104.476c-10.491 3.202-24.586 8.85-35.694 15.233-2.401-3.456-5.037-6.653-7.927-9.543-32.892-32.893-92.376-23.501-94.893-23.083-6.338 1.048-11.305 6.015-12.353 12.353-.416 2.517-9.809 62.015 23.072 94.898 7.819 7.82 17.68 13.824 29.408 17.959-7.198 44.044 1.221 115.769 34.877 174.776 5.975 10.482 10.018 21.448 12.268 31.77 11.531 52.698 47.937 82.857 99.685 82.857 49.932 0 87.151-27.588 99.844-83.558 2.455-10.842 6.458-21.161 12.106-31.066 33.03-57.906 42.277-129.516 34.88-174.78 11.728-4.135 21.588-10.139 29.407-17.958 32.881-32.883 23.488-92.382 23.072-94.899zm-199.309-46.537 37.277 113.92c-22.822 13.626-51.731 13.626-74.555 0zm-170.774 62.722c22.632-.972 49.931 3.117 62.462 21.872-13.52 12.628-23.844 27.956-30.71 45.71-6.486-2.553-11.842-5.924-16.001-10.083-14.304-14.304-16.485-40.606-15.751-57.499zm97.005 284.161 21.681-16.248c30.669-22.984 73.508-22.984 104.176 0l21.681 16.247c-4.702 14.717-9.696 69.507-69.861 71.831-64.843 2.508-71.122-51.126-77.58-71.518-.034-.104-.064-.209-.097-.312zm159.99-28.16-16.142-12.097c-41.342-30.983-98.329-31.347-140.156 0l-16.142 12.097c-12.456-22.001-32.93-67.585-32.93-129.47 0-45.279 16.985-81.484 58.693-100.958l-8.787 26.853c-1.938 5.919-.015 12.421 4.83 16.335 37.566 30.346 91.295 30.319 128.828 0 4.845-3.914 6.768-10.416 4.83-16.335l-8.786-26.849c40.924 19.122 58.692 54.624 58.692 100.954 0 61.883-20.473 107.466-32.93 129.47zm68.803-198.502c-4.159 4.159-9.516 7.53-16.003 10.083-6.868-17.753-17.193-33.078-30.711-45.705 12.546-18.786 39.877-22.834 62.389-21.883.677 15.287-.56 42.389-15.675 57.505z"/></g></svg>