<?xml version="1.0" encoding="iso-8859-1"?>
<!-- Generator: Adobe Illustrator 19.0.0, SVG Export Plug-In . SVG Version: 6.00 Build 0)  -->
<svg version="1.1" id="Layer_1" xmlns="http://www.w3.org/2000/svg" xmlns:xlink="http://www.w3.org/1999/xlink" x="0px" y="0px"
	 viewBox="0 0 512.001 512.001" style="enable-background:new 0 0 512.001 512.001;" xml:space="preserve">
<g>
	<g>
		<path d="M454.274,94.924L287.813,31.65c-20.515-7.799-43.109-7.799-63.626,0L57.728,94.924
			c-38.419,14.604-61.904,53.313-57.109,94.134l18.076,153.616C28.324,424.672,97.846,486.2,180.408,486.2h151.183
			c82.562,0,152.084-61.528,161.714-143.528l18.076-153.768C516.178,148.084,492.693,109.528,454.274,94.924z M331.594,446.334
			H180.408v0.001c-39.213,0-74.521-18.173-97.142-47.287l88.115-10.143c1.599-0.187,3.171-0.49,4.679-1.055l35.562-13.283
			l34.78,19.139c5.98,3.289,13.225,3.296,19.202,0.012l34.784-19.109l35.574,13.316c1.488,0.558,3.039,0.937,4.619,1.125
			l87.985,10.221C405.939,428.259,370.707,446.334,331.594,446.334z M471.791,184.408L453.715,338.33
			c-0.954,8.121-2.704,15.971-5.133,23.498l-100.888-12.073l-41.9-15.683c-5.44-2.037-11.496-1.599-16.585,1.197l-33.2,18.244
			l-33.201-18.252c-5.093-2.8-11.153-3.24-16.595-1.199l-41.864,15.683L63.329,361.55c-2.383-7.44-4.098-15.198-5.039-23.219
			L40.211,184.408c-2.66-22.645,10.368-44.119,31.682-52.219l166.46-63.275c5.691-2.163,11.67-3.245,17.648-3.245
			c5.978,0,11.957,1.082,17.647,3.244l166.461,63.275C461.423,140.289,474.451,161.762,471.791,184.408z"/>
	</g>
</g>
<g>
	<g>
		<path d="M246.979,242.078c-6.927-8.555-19.479-9.877-28.034-2.951l-17.841,14.442c-8.556,6.926-9.879,19.478-2.953,28.033
			c3.939,4.868,9.695,7.394,15.505,7.394c4.405,0,8.839-1.454,12.53-4.441l17.841-14.442
			C252.583,263.185,253.905,250.634,246.979,242.078z"/>
	</g>
</g>
<g>
	<g>
		<path d="M310.898,253.57l-17.841-14.442c-8.555-6.926-21.106-5.606-28.034,2.951c-6.925,8.555-5.604,21.106,2.953,28.033
			l17.841,14.442c3.69,2.987,8.123,4.441,12.53,4.441c5.807,0,11.565-2.526,15.505-7.392
			C320.776,273.048,319.455,260.496,310.898,253.57z"/>
	</g>
</g>
<g>
	<g>
		<circle cx="425.454" cy="213.783" r="25.672"/>
	</g>
</g>
<g>
	<g>
		<circle cx="86.547" cy="213.783" r="25.672"/>
	</g>
</g>
<g>
</g>
<g>
</g>
<g>
</g>
<g>
</g>
<g>
</g>
<g>
</g>
<g>
</g>
<g>
</g>
<g>
</g>
<g>
</g>
<g>
</g>
<g>
</g>
<g>
</g>
<g>
</g>
<g>
</g>
</svg>
