<svg id="Capa_1" enable-background="new 0 0 512 512" height="512" viewBox="0 0 512 512" width="512" xmlns="http://www.w3.org/2000/svg"><g><path d="m462.375 8.361c-7.361-7.335-17.733-10.065-27.742-7.307l-45.396 12.513c-19.35 5.334-35.41 18.068-45.032 35.411-13.971-13.984-33.178-22.104-53.132-22.104h-70.145c-19.954 0-39.161 8.12-53.132 22.104-9.622-17.343-25.682-30.078-45.033-35.412l-45.396-12.511c-10.009-2.76-20.381-.027-27.742 7.307-7.36 7.335-10.14 17.708-7.436 27.749l13.673 50.754c5.509 20.449 19.521 37.6 38.442 47.057l12.064 6.029c-4.669 15.272-5.896 31.574-3.331 47.538l12.254 76.265c2.771 17.246 7.707 39.118 14.67 55.131l31.501 72.447c1.974 4.54 2.582 9.519 1.758 14.401l-4.021 23.839c-2.473 14.655.47 29.685 8.287 42.321l6.938 11.216c11.194 18.091 30.561 28.891 51.811 28.891h59.53c21.25 0 40.617-10.8 51.809-28.891l6.939-11.216c7.816-12.635 10.76-27.665 8.288-42.32l-4.022-23.841c-.823-4.881-.215-9.86 1.758-14.399l31.502-72.448c6.963-16.013 11.898-37.885 14.67-55.131l12.254-76.265c2.565-15.964 1.338-32.265-3.331-47.538l12.063-6.029c18.922-9.457 32.934-26.608 38.443-47.057l13.674-50.755c2.703-10.041-.077-20.414-7.437-27.749zm-83.032 174.354-12.254 76.264c-2.372 14.761-6.596 34.203-12.556 47.908l-1.469 3.378c-.7.071-1.403.173-2.106.347l-50.866 12.568c-8.043 1.987-12.955 10.129-10.971 18.184 1.687 6.847 7.812 11.428 14.552 11.428 1.189 0 2.398-.143 3.604-.441l30.795-7.609-15.042 34.594c-1.419 3.264-2.508 6.634-3.274 10.065l-18.202-9.566c-28.746-15.109-63.055-15.079-91.776.079l-17.581 9.279c-.764-3.359-1.839-6.659-3.229-9.857l-15.285-35.153 33.061 8.169c1.207.298 2.415.441 3.604.441 6.739 0 12.865-4.581 14.552-11.428 1.984-8.055-2.928-16.197-10.971-18.184l-50.867-12.568c-1.395-.345-2.791-.469-4.159-.417l-1.438-3.307c-5.959-13.706-10.184-33.147-12.556-47.908l-12.254-76.264c-1.334-8.305-1.212-16.735.23-24.919l28.828 29.897c8.465 8.78 26.769 20.11 28.829 21.373.353.216.714.418 1.083.604 16.368 8.261 29.237 21.513 36.234 37.314 4.947 11.171 15.601 18.149 27.803 18.208h.158c12.136 0 22.787-6.861 27.809-17.908l.063-.139c.024-.054.049-.108.073-.162 6.997-15.801 19.866-29.053 36.234-37.314.37-.187.731-.388 1.083-.604 2.06-1.263 20.363-12.593 28.829-21.373l29.144-30.226c1.5 8.286 1.64 16.831.288 25.247zm-60.331 273.353-6.939 11.216c-2.91 4.704-6.914 8.429-11.572 10.952v-19.318c0-8.297-6.716-15.023-15-15.023s-15 6.726-15 15.023v23.035h-29v-23.035c0-8.297-6.716-15.023-15-15.023s-15 6.726-15 15.023v19.318c-4.659-2.523-8.662-6.248-11.573-10.952l-6.938-11.216c-3.969-6.416-5.464-14.048-4.208-21.49l1.781-10.559 33.203-17.523c19.982-10.546 43.852-10.566 63.851-.055l33.86 17.796 1.745 10.341c1.253 7.442-.242 15.074-4.21 21.49zm-63.012-351.625c8.284 0 15-6.726 15-15.023v-32.499h20.072c5.573 0 11.043 1.07 16.15 3.043-1.316 1.423-2.378 3.125-3.083 5.061l-20.146 55.354c-.271.696-3.281 7.593-25.317 35.082-.95 1.185-2.162 1.426-2.987 1.429-.838-.002-2.035-.254-2.978-1.442-21.83-27.495-24.807-34.37-25.068-35.046l-20.155-55.377c-.687-1.888-1.718-3.549-2.989-4.95 5.187-2.043 10.755-3.154 16.429-3.154h20.072v32.499c0 8.297 6.716 15.023 15 15.023zm109.194 21.139c.438.583.847 1.184 1.267 1.778-.281.251-.563.501-.829.777l-37.299 38.684c-4.285 4.444-15.8 12.218-22.421 16.316-22.236 11.386-39.808 29.68-49.531 51.581l-.041.089c-.116.255-.176.343-.529.339-.374-.002-.413-.088-.526-.344-9.717-21.941-27.306-40.267-49.572-51.667-7.047-4.358-18.338-12.084-22.418-16.315l-37.299-38.684c-.195-.202-.404-.38-.606-.568.467-.666.927-1.337 1.417-1.988l34.232-45.495 18.418 50.606c1.198 3.291 4.003 10.999 29.772 43.457 6.433 8.102 16.051 12.763 26.389 12.788h.082c10.307 0 19.915-4.613 26.369-12.664 26.082-32.536 28.899-40.275 30.102-43.58l18.54-50.94zm-257.494-18.545c-11.258-5.627-19.596-15.832-22.874-28l-13.026-48.353 43.003 11.853c12.938 3.566 23.417 12.685 28.75 25.018l3.412 7.891-24.118 32.053c-1.292 1.717-2.52 3.474-3.698 5.261zm319.473-28c-3.278 12.167-11.615 22.372-22.874 28l-11.449 5.722c-1.178-1.786-2.406-3.543-3.697-5.26l-24.119-32.054 3.412-7.891c5.333-12.333 15.812-21.451 28.75-25.018l43.004-11.852z"/><path d="m185 238c-8.284 0-15 6.716-15 15v30c0 8.284 6.716 15 15 15s15-6.716 15-15v-30c0-8.284-6.716-15-15-15z"/><path d="m327 238c-8.284 0-15 6.716-15 15v30c0 8.284 6.716 15 15 15s15-6.716 15-15v-30c0-8.284-6.716-15-15-15z"/></g></svg>