<svg id="Layer_1" enable-background="new 0 0 512 512" height="512" viewBox="0 0 512 512" width="512" xmlns="http://www.w3.org/2000/svg"><g><path d="m159.6 158.533h16.066c8.284 0 15-6.716 15-15s-6.716-15-15-15h-16.066c-8.284 0-15 6.716-15 15s6.716 15 15 15z"/><path d="m336.333 158.533h16.067c8.284 0 15-6.716 15-15s-6.716-15-15-15h-16.067c-8.284 0-15 6.716-15 15s6.716 15 15 15z"/><path d="m256 160.667c-70.384 0-127.467 56.948-127.467 127.467v64.266c0 8.284 6.724 15 15.008 15 6.294 0 12.535-.346 18.703-1.016 6.383 28.139 31.579 49.217 61.622 49.217h64.283c41.361 0 58.194-33.96 61.622-49.215 6.166.67 12.404 1.015 18.695 1.015 8.284 0 15-6.716 15-15v-64.267c.001-70.385-56.949-127.467-127.466-127.467zm32.149 224.933h-64.283c-15.505 0-28.559-10.686-32.192-25.079 23.625-6.93 45.522-18.971 64.325-35.578 18.806 16.61 40.708 28.652 64.34 35.582-1.953 7.813-10.891 25.075-32.19 25.075zm65.318-48.987c-31.014-3.278-59.808-16.702-82.467-38.652v-26.961h17.134c8.284 0 15-6.716 15-15s-6.716-15-15-15h-64.267c-8.284 0-15 6.716-15 15s6.716 15 15 15h17.133v26.961c-22.659 21.95-51.448 35.373-82.467 38.651v-48.479c0-53.813 43.546-97.467 97.467-97.467 53.821 0 97.467 43.553 97.467 97.467z"/><path d="m479.866 143.533c0-3.174-.14-6.326-.401-9.453l17.545-17.545c9.667-9.665 14.99-22.515 14.99-36.192 0-44.378-35.902-80.343-80.352-80.343-13.668 0-26.519 5.323-36.186 14.99l-17.544 17.544c-3.127-.261-6.279-.401-9.452-.401h-17.134v-17.133c0-8.284-6.716-15-15-15h-2.755c-28.529 0-55.597 9.515-77.577 27.044-21.98-17.529-49.048-27.044-77.578-27.044h-2.755c-8.284 0-15 6.716-15 15v17.133h-17.133c-3.174 0-6.326.14-9.452.401l-17.545-17.545c-9.667-9.666-22.517-14.989-36.194-14.989-44.378 0-80.343 35.901-80.343 80.351 0 13.668 5.324 26.52 14.989 36.185l17.545 17.545c-.261 3.127-.401 6.279-.401 9.453v26.145c-20.769 22.953-32.133 52.383-32.133 83.558v83.097c0 8.284 6.716 15 15 15 18.307 0 33.2 14.893 33.2 33.2v48.2c0 8.284 6.716 15 15 15 19.407 0 38.381 3.655 56.398 10.865l130.831 52.329c1.788.715 3.68 1.073 5.571 1.073 1.892 0 3.782-.357 5.57-1.073l130.833-52.33c18.016-7.208 36.989-10.864 56.396-10.864 8.284 0 15-6.716 15-15v-48.216c0-18.297 14.887-33.184 33.2-33.184 8.284 0 15-6.716 15-15v-83.097c0-31.175-11.364-60.605-32.134-83.559v-26.145zm-63.189-107.331c4-4 9.316-6.202 14.98-6.202 27.814 0 50.343 22.496 50.343 50.351 0 5.655-2.203 10.972-6.202 14.971l-4.715 4.715c-5.519-13.017-13.546-24.977-23.844-35.271-10.296-10.301-22.259-18.33-35.277-23.85zm-380.474 59.12c-4-4-6.203-9.316-6.203-14.979 0-27.814 22.496-50.343 50.351-50.343 5.655 0 10.972 2.203 14.971 6.202l4.715 4.715c-13.017 5.519-24.978 13.546-35.271 23.845-10.3 10.296-18.329 22.258-23.849 35.276zm445.797 157.915v69.892c-27.632 6.745-48.2 31.71-48.2 61.389v33.829c-18.018 1.479-35.631 5.631-52.539 12.397l-125.261 50.101-125.258-50.1c-16.91-6.767-34.524-10.919-52.542-12.398v-33.813c0-29.682-20.568-54.65-48.2-61.401v-69.895c0-25.294 9.852-49.075 27.74-66.964 2.813-2.813 4.394-6.628 4.394-10.606v-32.133c0-21.746 8.467-42.186 23.847-57.559 15.367-15.375 35.806-23.841 57.553-23.841h32.133c8.284 0 15-6.716 15-15v-16.356c20.66 2.649 39.757 11.991 54.727 26.96 5.857 5.858 15.355 5.858 21.213 0 14.969-14.969 34.068-24.31 54.727-26.96v16.354c0 8.284 6.716 15 15 15h32.134c21.747 0 42.187 8.467 57.559 23.846 15.374 15.367 23.841 35.807 23.841 57.554v32.133c0 3.979 1.58 7.794 4.394 10.607 17.886 17.888 27.738 41.669 27.738 66.964z"/></g></svg>