<svg id="Capa_1" enable-background="new 0 0 512 512" height="512" viewBox="0 0 512 512" width="512" xmlns="http://www.w3.org/2000/svg"><circle cx="136" cy="105" r="15"/><path d="m196 240h24.938c16.794 36.013 53.091 61 95.062 61 8.284 0 15-6.716 15-15v-37.735c18.319 11.017 31 31.842 31 53.735 0 33.084-27.364 60-61 60h-10.51c-17.253-36.284-53.984-60-94.49-60-5.532 0-10.615 3.045-13.226 7.922-2.609 4.877-2.323 10.796.745 15.399 33.079 49.618 33.079 113.74 0 163.358-3.068 4.603-3.354 10.521-.745 15.399 2.61 4.877 7.693 7.922 13.226 7.922 40.506 0 77.237-23.716 94.49-60h10.51c116.021 0 211-95.838 211-212 0-39.393-10.964-76.281-30-107.817v-44.756c0-23.353 9.094-45.307 25.606-61.82 4.29-4.29 5.573-10.742 3.252-16.347-2.322-5.605-7.791-9.26-13.858-9.26h-47.573c-31.365 0-60.854 12.214-83.033 34.393-1.539 1.539-3.145 3.021-4.8 4.446-19.202-5.739-39.54-8.839-60.594-8.839h-286c-8.284 0-15 6.716-15 15 0 108.272 88.719 195 196 195zm253.427-210.01h17.513c-9.752 17.342-14.94 36.996-14.94 57.437v6.057c-17.042-17.393-37.074-31.87-59.273-42.579 15.806-13.515 35.68-20.915 56.7-20.915zm-148.427 30.01c99.804 0 181 80.748 181 180 0 100.355-81.196 182-181 182h-20.512c-6.348 0-12.008 3.995-14.134 9.976-7.31 20.563-22.951 36.49-42.227 44.441 18.955-44.365 18.955-94.469 0-138.833 19.275 7.95 34.917 23.877 42.227 44.441 2.126 5.981 7.786 9.976 14.134 9.976h20.512c49.915 0 91-40.422 91-90 0-42.973-31.39-81.75-73.016-90.2-4.411-.895-8.992.237-12.478 3.086-3.485 2.849-5.507 7.112-5.507 11.614v42.973c-34.438-7.113-60-38.026-60-74.473 0-8.284-6.716-15-15-15s-15 6.716-15 15c0 5.091.357 10.099 1.048 15h-16.047c-35.452 0-68.339-11.109-95.336-30h35.336c8.284 0 15-6.716 15-15s-6.716-15-15-15h-67.958c-20.74-24.927-34.266-55.989-37.362-90h270.32z"/><path d="m185.394 175.607c5.857 5.858 15.355 5.858 21.213 0 22.391-22.391 22.391-58.823 0-81.213-5.856-5.858-15.354-5.858-21.213 0-5.858 5.858-5.858 15.355 0 21.213 10.693 10.693 10.693 28.093 0 38.787-5.859 5.858-5.859 15.355 0 21.213z"/><path d="m245.394 175.607c5.857 5.858 15.355 5.858 21.213 0 22.391-22.391 22.391-58.823 0-81.213-5.856-5.858-15.354-5.858-21.213 0-5.858 5.858-5.858 15.355 0 21.213 10.693 10.693 10.693 28.093 0 38.787-5.859 5.858-5.859 15.355 0 21.213z"/></svg>