<svg id="Capa_1" enable-background="new 0 0 509.941 509.941" height="512" viewBox="0 0 509.941 509.941" width="512" xmlns="http://www.w3.org/2000/svg"><path id="XMLID_900_" d="m403.676 271.895h-74.78c-1.26-9.323-4.23-18.291-8.731-26.474h77.174l69.248-72.258v-102.842h-30v90.787l-52.049 54.313h-70.936l68.081-40.133v-115.621l-60.862-59.667-21.002 21.422 51.864 50.847v85.879l-41.606 24.527c-2.406-8.561-6.701-16.322-12.412-22.785 9.612-12.872 17.16-28.184 22.132-45.045l-28.775-8.484c-4.155 14.093-10.464 26.679-18.449 36.957-5.568-1.828-11.501-2.828-17.663-2.828-6.239 0-12.242 1.027-17.87 2.899-8.899-10.835-15.614-23.476-19.61-37.028l-28.775 8.484c4.847 16.438 12.824 31.837 23.335 45.238-5.614 6.409-9.844 14.078-12.229 22.53l-41.5-24.465v-85.879l51.864-50.847-21.004-21.422-60.862 59.667v115.621l68.081 40.133h-70.936l-52.049-54.313v-90.787h-30v102.842l69.248 72.258h77.051c-4.501 8.183-7.471 17.151-8.731 26.474h-74.657l-69.248 72.258v102.841h30v-90.786l52.049-54.313h64.462l-61.607 29.215v115.231l60.494 63.601 21.737-20.676-52.231-54.913v-84.268l47.695-22.619c4.219 5.44 9.118 11.033 14.699 16.771 15.565 16.002 30.963 27.563 31.611 28.047l8.981 6.714 8.981-6.714c.648-.483 16.046-12.045 31.611-28.047 5.596-5.753 10.506-11.36 14.732-16.813l47.785 22.662v84.267l-52.231 54.913 21.737 20.676 60.494-63.601v-115.232l-61.605-29.215h64.461l52.049 54.313v90.786h30v-102.841zm-148.776 69.235c-20.866-17.434-44.671-43.354-44.671-58.955 0-11.292 4.075-22.126 11.474-30.508 10.4-11.782 13.36-28.231 7.724-42.929-1.245-3.246-1.876-6.685-1.876-10.221 0-15.455 12.273-28.029 27.358-28.029s27.358 12.574 27.358 28.029c0 3.535-.631 6.975-1.876 10.222-5.635 14.696-2.675 31.146 7.725 42.928 7.398 8.382 11.473 19.216 11.473 30.508 0 15.549-23.821 41.493-44.689 58.955z"/></svg>