<svg id="Layer_1" enable-background="new 0 0 512 512" height="512" viewBox="0 0 512 512" width="512" xmlns="http://www.w3.org/2000/svg"><g><path d="m462.216 361.757c-19.985-39.962-30.549-84.71-30.549-129.407v-72.766c0-88.145-71.306-159.584-159.601-159.584-3.979 0-7.794 1.581-10.606 4.394l-5.46 5.46-5.46-5.46c-2.812-2.813-6.644-4.394-10.623-4.394-88.143 0-159.584 71.306-159.584 159.584v72.766c0 44.697-10.563 89.445-30.549 129.407-2.325 4.65-2.077 10.172.656 14.595 2.732 4.422 7.561 7.114 12.76 7.114h18.334c3.081 19.027 12.016 36.563 25.911 50.458l41.548 41.548c5.857 5.858 15.355 5.857 21.213 0l21.527-21.527 53.66 53.66c2.929 2.931 6.768 4.395 10.607 4.395s7.678-1.464 10.606-4.394l53.66-53.66 21.527 21.527c5.857 5.857 15.355 5.858 21.213 0l41.548-41.548c13.896-13.896 22.83-31.431 25.911-50.458h18.335c5.199 0 10.027-2.692 12.76-7.114 2.733-4.423 2.981-9.946.656-14.596zm-45.549-8.29c-8.284 0-15 6.716-15 15 0 16.715-6.508 32.428-18.325 44.245l-30.942 30.941-12.069-12.069c7.152-11.135 11.002-24.086 11.002-37.636v-9.415c0-8.284-6.716-15-15-15s-15 6.716-15 15v9.415c0 10.644-4.146 20.651-11.673 28.179l-53.66 53.66-53.66-53.66c-7.527-7.528-11.673-17.535-11.673-28.179v-9.415c0-8.284-6.716-15-15-15s-15 6.716-15 15v9.415c0 13.55 3.85 26.501 11.002 37.636l-12.069 12.069-30.941-30.941c-11.817-11.816-18.325-27.53-18.325-44.245 0-8.284-6.716-15-15-15h-8.87c15.665-38.312 23.87-79.735 23.87-121.117v-72.766c0-69.624 54.747-126.294 123.526-129.445l11.534 11.535c2.813 2.813 6.628 4.394 10.606 4.394s7.794-1.581 10.606-4.394l11.535-11.535c68.712 3.143 123.525 59.768 123.525 129.446v72.766c0 41.382 8.205 82.805 23.87 121.117h-8.869z"/><path d="m344.683 114.604-70.291 42.174-7.785-7.785c-5.857-5.858-15.355-5.858-21.213 0l-7.785 7.785-70.291-42.174c-7.107-4.263-16.317-1.958-20.58 5.145-4.263 7.104-1.959 16.317 5.145 20.58l35.161 21.096c-5.985 1.971-10.309 7.597-10.309 14.241 0 8.284 6.716 15 15 15h11.987l-22.594 22.594c-5.858 5.858-5.858 15.355 0 21.213 19.379 19.379 34.207 43.37 42.881 69.376l17.762 53.294c2.042 6.125 7.774 10.257 14.23 10.257s12.188-4.131 14.23-10.257l17.761-53.291c8.675-26.009 23.503-50 42.882-69.379 5.858-5.858 5.858-15.355 0-21.213l-22.594-22.594h11.987c8.284 0 15-6.716 15-15 0-6.644-4.324-12.271-10.309-14.241l35.161-21.096c7.104-4.262 9.407-13.476 5.145-20.58-4.263-7.103-13.477-9.408-20.581-5.145zm-85.152 179.761-3.531 10.594-3.532-10.598c-8.556-25.654-22.236-49.631-39.911-70.105l43.443-43.443 43.443 43.443c-17.674 20.474-31.355 44.452-39.912 70.109z"/></g></svg>