<?xml version="1.0" encoding="iso-8859-1"?>
<!-- Generator: Adobe Illustrator 19.0.0, SVG Export Plug-In . SVG Version: 6.00 Build 0)  -->
<svg version="1.1" id="Capa_1" xmlns="http://www.w3.org/2000/svg" xmlns:xlink="http://www.w3.org/1999/xlink" x="0px" y="0px"
	 viewBox="0 0 512.001 512.001" style="enable-background:new 0 0 512.001 512.001;" xml:space="preserve">
<g>
	<g>
		<circle cx="194.489" cy="281.334" r="15.378"/>
	</g>
</g>
<g>
	<g>
		<circle cx="317.512" cy="281.334" r="15.378"/>
	</g>
</g>
<g>
	<g>
		<path d="M459.05,290.63c-1.019-1.359-2.068-2.695-3.137-4.015V46.194c0-17.896-10.019-33.828-26.149-41.581
			c-16.129-7.753-34.83-5.623-48.804,5.555l-62.943,50.354c-19.533-6.39-40.376-9.859-62.016-9.859
			c-21.641,0-42.483,3.47-62.016,9.859L131.041,10.17C117.066-1.01,98.366-3.138,82.237,4.614
			c-16.129,7.751-26.149,23.685-26.149,41.58v240.422c-1.069,1.319-2.118,2.655-3.137,4.015
			c-18.752,25.002-27.619,54.125-27.619,82.971v30.756c0,5.33,2.76,10.28,7.293,13.081c4.533,2.802,10.196,3.055,14.962,0.674
			l39.257-19.629v36.629c0,5.33,2.76,10.28,7.293,13.081c4.525,2.797,10.185,3.061,14.962,0.674l41.865-20.932
			c10.78,48.053,53.78,84.067,105.037,84.067s94.257-36.015,105.037-84.067l41.865,20.932c4.776,2.389,10.437,2.123,14.962-0.674
			c4.533-2.802,7.293-7.751,7.293-13.081v-36.629l39.257,19.628c4.766,2.383,10.426,2.129,14.962-0.674
			c4.533-2.802,7.293-7.751,7.293-13.081V373.6C486.668,344.184,477.48,315.204,459.05,290.63z M400.173,34.186
			c4.728-3.782,10.81-4.475,16.268-1.852s8.716,7.805,8.716,13.861v97.962c-18.502-29.304-44.399-53.488-75.054-69.914
			L400.173,34.186z M86.844,46.194c0-6.056,3.258-11.237,8.716-13.861c5.459-2.623,11.54-1.93,16.268,1.852l50.07,40.056
			c-30.656,16.426-56.553,40.611-75.054,69.915V46.194z M256,81.42c93.273,0,169.157,75.884,169.157,169.157v7.935
			c-7.457-4.996-16.493-9.842-25.721-13.531c-2.543-31.821-15.606-62.887-39.321-88.302c-14.335-15.365-34.57-23.193-55.513-21.489
			c-19.396,1.582-36.866,11.141-48.6,26.431c-11.734-15.292-29.205-24.85-48.6-26.431c-20.201-1.645-40.483,5.397-55.999,22.01
			c-22.664,24.395-36.233,55.225-38.836,87.782c-8.085,3.232-17.181,7.811-25.721,13.532v-7.936h-0.001
			C86.844,157.304,162.727,81.42,256,81.42z M255.999,438.145l-16.839-25.259c-6.82-10.228,0.493-23.907,12.795-23.907h8.088
			c12.294,0,19.619,13.673,12.795,23.907L255.999,438.145z M455.911,379.475l-39.257-19.628c-4.766-2.384-10.428-2.129-14.962,0.674
			c-4.533,2.802-7.293,7.751-7.293,13.081v36.629l-31.194-15.596c-2.231-25.083-13.069-48.373-31.091-66.393
			c-6.005-6.006-15.742-6.006-21.747,0c-6.006,6.006-6.006,15.742,0,21.747c14.523,14.523,22.52,33.831,22.52,54.369
			c0,37.131-26.458,68.198-61.511,75.342v-9.175l27.052-40.577c20.416-30.623-1.59-71.723-38.386-71.723h-8.088
			c-36.803,0-58.798,41.107-38.385,71.723l27.052,40.578v9.174c-35.053-7.144-61.511-38.21-61.511-75.342
			c0-20.538,7.997-39.846,22.52-54.369c6.006-6.006,6.006-15.742,0-21.747c-6.005-6.006-15.742-6.006-21.747,0
			c-18.022,18.022-28.859,41.31-31.091,66.393l-31.193,15.596v-36.629c0-5.33-2.76-10.28-7.293-13.081
			c-4.533-2.802-10.194-3.056-14.962-0.674l-39.255,19.627v-5.873c0-46.344,30.218-88.827,75.921-102.899
			c6.429-1.98,10.826-7.909,10.853-14.637c0.112-28.413,10.795-56.218,31.512-78.406c7.882-8.449,19.005-12.76,30.525-11.816
			c11.517,0.939,21.798,6.992,28.208,16.607l10.098,15.146c2.852,4.278,7.653,6.847,12.794,6.847c5.141,0,9.943-2.569,12.794-6.847
			l10.098-15.146c6.409-9.614,16.69-15.667,28.207-16.606c11.084-0.903,22.176,2.887,30.967,12.289
			c19.924,21.445,30.958,49.122,31.072,77.933c0.027,6.727,4.423,12.657,10.853,14.637c45.197,13.917,75.92,56.018,75.92,102.898
			c0,0.01,0.001,0.02,0.001,0.03V379.475z"/>
	</g>
</g>
<g>
</g>
<g>
</g>
<g>
</g>
<g>
</g>
<g>
</g>
<g>
</g>
<g>
</g>
<g>
</g>
<g>
</g>
<g>
</g>
<g>
</g>
<g>
</g>
<g>
</g>
<g>
</g>
<g>
</g>
</svg>
