<?xml version="1.0" encoding="iso-8859-1"?>
<!-- Generator: Adobe Illustrator 19.0.0, SVG Export Plug-In . SVG Version: 6.00 Build 0)  -->
<svg version="1.1" id="Capa_1" xmlns="http://www.w3.org/2000/svg" xmlns:xlink="http://www.w3.org/1999/xlink" x="0px" y="0px"
	 viewBox="0 0 512.001 512.001" style="enable-background:new 0 0 512.001 512.001;" xml:space="preserve">
<g>
	<g>
		<path d="M453.297,253.793c12.522-21.81,24.06-39.183,36.312-54.673c48.714-61.593,13.364-152.741-61.9-167.26
			c-23.605-4.553-48.222-1.11-69.109,9.422C332.664,12.353,294.859,0.328,255.675,0.328c-39.336,0-77.448,12.073-103.677,41.136
			C87.77,9.12,13.498,49.955,1.705,116.104c-5.22,29.279,1.641,58.274,19.32,81.642c11.916,15.751,23.077,33.367,35.127,55.442
			c13.894,25.453,39.011,42.389,67.26,46.017c-31.289,47.292-71.148,62.173-86.283,80.677c-11.569,14.144-6.59,26.961-2.592,33.342
			c7.445,11.887,23.391,12.94,37.221,10.977c35.265-5.01,93.34-33.683,128.207-84.998c4.296,69.298,9.724,157.204,9.797,158.411
			c0.488,7.9,7.037,14.058,14.953,14.058h60.922c7.915,0,14.464-6.158,14.953-14.058c0.074-1.196,5.429-87.929,9.711-157.004
			c31.445,45.111,84.278,75.735,124.029,82.949c14.987,2.721,33.193,2.628,41.314-10.335c4.008-6.398,8.983-19.242-2.727-33.386
			c-15.4-18.601-56.116-33.582-87.681-81.631C413.405,294.815,439.252,278.254,453.297,253.793z M82.45,238.833
			c-12.776-23.405-24.701-42.204-37.532-59.162C32.334,163.037,27.462,142.33,31.2,121.364
			c8.097-45.414,57.947-74.793,103.659-54.847c-9.89,19.503-15.011,42.658-15.011,68.639c0,33.253,8.031,65.272,23.225,92.593
			c2.284,4.107,4.716,8.054,7.268,11.861c-3.173,11.014-6.848,21.036-10.9,30.179c-1.532,0.117-3.07,0.194-4.611,0.194
			C113.009,269.983,92.939,258.047,82.45,238.833z M64.365,394.92c22.078-18.437,78.683-46.476,108.733-128.515
			c6.555,6.064,13.574,11.382,20.985,15.903C173.532,354.084,97.446,392.023,64.365,394.92z M293.787,260.695
			c-7.445,2.129-12.121,9.655-10.551,17.373c0.227,1.116-9.271,164.597-11.683,203.644h-32.754
			c-2.543-41.166-9.974-161.423-12.894-208.14c-0.337-5.385-3.542-10.173-8.392-12.534c-40.494-19.72-67.701-70.307-67.701-125.88
			c0-29.269,7.085-50.456,17.807-65.772c0.042-0.06,0.09-0.113,0.132-0.174c0.036-0.053,0.064-0.11,0.099-0.163
			c23.99-33.909,65.91-38.756,87.826-38.756c31.53,0,104.865,10.218,104.865,104.865c0,21.799-3.942,42.605-11.717,61.84
			C337.032,226.167,317.512,248.738,293.787,260.695z M445.728,394.998c-34.784-3.078-109.93-42.169-130.424-111.978
			c7.452-4.473,14.509-9.755,21.1-15.762C366.644,348.725,423.477,376.611,445.728,394.998z M372.674,268.877
			c-0.801-0.017-1.944-0.041-3.343-0.073c-3.741-8.523-7.153-17.8-10.129-27.926c6.778-9.923,12.633-20.864,17.398-32.654
			c9.224-22.82,13.901-47.403,13.901-73.069c0-26.063-5.076-49.269-14.88-68.787c14.229-6.267,30.6-8.142,46.413-5.089
			c53.594,10.339,78.752,75.41,44.074,119.255c-13.192,16.679-25.52,35.217-38.796,58.341
			C417.112,256.642,396.667,269.384,372.674,268.877z"/>
	</g>
</g>
<g>
	<g>
		<circle cx="194.75" cy="150.138" r="14.981"/>
	</g>
</g>
<g>
	<g>
		<circle cx="315.595" cy="150.138" r="14.981"/>
	</g>
</g>
<g>
</g>
<g>
</g>
<g>
</g>
<g>
</g>
<g>
</g>
<g>
</g>
<g>
</g>
<g>
</g>
<g>
</g>
<g>
</g>
<g>
</g>
<g>
</g>
<g>
</g>
<g>
</g>
<g>
</g>
</svg>
