<?xml version="1.0" encoding="iso-8859-1"?>
<!-- Generator: Adobe Illustrator 19.0.0, SVG Export Plug-In . SVG Version: 6.00 Build 0)  -->
<svg version="1.1" id="Capa_1" xmlns="http://www.w3.org/2000/svg" xmlns:xlink="http://www.w3.org/1999/xlink" x="0px" y="0px"
	 viewBox="0 0 512 512" style="enable-background:new 0 0 512 512;" xml:space="preserve">
<g>
	<g>
		<circle cx="196" cy="311.08" r="15"/>
	</g>
</g>
<g>
	<g>
		<circle cx="316" cy="311.08" r="15"/>
	</g>
</g>
<g>
	<g>
		<path d="M297.275,383.136l-27.127-77.035c-2.114-6.002-7.785-10.018-14.148-10.018c-6.363,0-12.035,4.016-14.148,10.018
			l-27.125,77.033c-2.473,5.676-3.727,11.71-3.727,17.949c0,24.813,20.187,45,45,45s45-20.187,45-45
			C301,394.847,299.748,388.812,297.275,383.136z M256,416.083c-8.271,0-15-6.729-15-15c0-2.168,0.448-4.251,1.331-6.193
			c0.183-0.402,0.348-0.812,0.495-1.229L256,356.246l13.176,37.417c0.146,0.415,0.311,0.823,0.493,1.224
			c0.883,1.944,1.331,4.029,1.331,6.197C271,409.354,264.271,416.083,256,416.083z"/>
	</g>
</g>
<g>
	<g>
		<path d="M487.079,176.586c1.455-10.024,0.845-20.273-1.751-30.007C502.806,115.789,512,81.234,512,46
			c0-13.302-16.165-20.051-25.606-10.606c-18.749,18.749-39.882,35.525-62.754,49.928c-3.393-3.76-6.102-8.151-8.089-13.134
			c-12.799-32.094-45.875-51.242-80.138-46.269c-14.394,2.086-25.967-4.22-33.146-9.881C288.96,5.545,272.962,0,256,0
			c-16.962,0-32.96,5.545-46.267,16.038c-7.178,5.66-18.756,11.968-33.146,9.881c-34.192-4.965-67.314,14.111-80.137,46.268
			c-1.987,4.983-4.696,9.375-8.09,13.136c-22.871-14.404-44.004-31.18-62.754-49.929C16.2,25.986,0,32.646,0,46
			c0,35.234,9.194,69.789,26.672,100.579c-2.596,9.734-3.206,19.983-1.751,30.008c1.755,12.09-1.315,23.552-8.881,33.145
			C5.546,223.037,0,239.036,0,256c0,19.405,7.587,30.633,16.041,41.352c7.565,9.592,10.636,21.053,8.88,33.144
			c-5.707,39.316,20.112,75.666,58.987,83.844c16.458,3.463,34.093,1.509,49.922-6.365c33.238,22.443,60.689,47.928,84.728,83.987
			C226.923,504.509,240.92,512,256,512s29.077-7.491,37.445-20.043l0.401-0.602c22.897-34.345,50.641-61.239,84.056-83.512
			c15.492,7.786,33.202,10.07,50.182,6.499c38.806-8.159,64.713-44.447,58.995-83.846c-1.755-12.09,1.315-23.551,8.881-33.143
			C504.413,286.633,512,275.405,512,256c0-16.964-5.546-32.963-16.04-46.269C488.395,200.139,485.324,188.677,487.079,176.586z
			 M124.317,83.298c7.658-19.204,27.464-30.663,47.961-27.691c19.452,2.822,39.354-2.862,56.031-16.012
			C236.27,33.318,245.845,30,256,30c10.155,0,19.73,3.318,27.69,9.594c16.677,13.15,36.574,18.837,56.031,16.013
			c20.458-2.967,40.289,8.45,47.962,27.692c2.47,6.194,5.717,11.946,9.627,17.147c-31.429,16.406-56.225,23.326-63.681,27.149
			c-5.04,2.587-9.602,5.81-13.61,9.543C300.425,126.558,278.548,121,256,121c-22.548,0-44.425,5.558-64.02,16.139
			c-4.008-3.733-8.571-6.957-13.613-9.545c-9.809-5.031-29.885-9.508-63.677-27.147C118.6,95.245,121.847,89.493,124.317,83.298z
			 M121,256v124.86c-9.414,4.839-20.344,6.345-30.917,4.122c-23.617-4.968-38.872-26.768-35.474-50.177
			c2.925-20.147-2.406-40.046-15.013-56.031C32.396,269.645,30,265.073,30,256c0-10.156,3.318-19.731,9.595-27.69
			c9.808-12.436,15.19-27.244,15.729-42.69c21.416,23.026,42.748,36.508,67.464,48.397C121.602,241.258,121,248.611,121,256z
			 M130.64,204.504c-49.539-23.831-84.875-69.205-96.498-121.142c63.225,51.164,122.176,66.641,130.529,70.923
			C174.743,159.455,181,169.691,181,181c0,21.805-22.696,36.393-42.509,27.28L130.64,204.504z M361,383.056
			c-36.7,24.462-67.215,54.308-92.118,91.662l-0.401,0.603c-2.83,4.245-7.379,6.679-12.48,6.679s-9.651-2.435-12.48-6.68
			c-25.872-38.807-55.966-67.271-92.52-91.95V256c0-5.048,0.37-10.069,1.08-15.027C184.666,240.393,211,213.722,211,181
			c0-6.385-0.998-12.599-2.883-18.462C222.857,154.968,239.186,151,256,151c16.814,0,33.143,3.968,47.883,11.538
			C301.998,168.401,301,174.615,301,181c0,32.722,26.334,59.393,58.92,59.973c0.71,4.958,1.08,9.979,1.08,15.027V383.056z
			 M373.509,208.279C353.697,217.389,331,202.808,331,181c0-12.717,7.92-23.926,19.792-28.223
			c45.493-16.46,84.674-35.11,127.066-69.416c-11.624,51.938-46.959,97.311-96.499,121.142L373.509,208.279z M472.404,278.775
			c-12.607,15.985-17.938,35.884-15.013,56.03c3.393,23.381-11.828,45.205-35.479,50.178c-10.57,2.224-21.5,0.713-30.912-4.126V256
			c0-7.389-0.602-14.742-1.788-21.983c24.423-11.75,45.752-25.053,67.464-48.397c0.54,15.447,5.921,30.254,15.729,42.69
			C478.682,236.269,482,245.844,482,256C482,265.073,479.604,269.645,472.404,278.775z"/>
	</g>
</g>
<g>
</g>
<g>
</g>
<g>
</g>
<g>
</g>
<g>
</g>
<g>
</g>
<g>
</g>
<g>
</g>
<g>
</g>
<g>
</g>
<g>
</g>
<g>
</g>
<g>
</g>
<g>
</g>
<g>
</g>
</svg>
