<?xml version="1.0" encoding="iso-8859-1"?>
<!-- Generator: Adobe Illustrator 19.0.0, SVG Export Plug-In . SVG Version: 6.00 Build 0)  -->
<svg xmlns="http://www.w3.org/2000/svg" xmlns:xlink="http://www.w3.org/1999/xlink" version="1.1" id="Layer_1" x="0px" y="0px" viewBox="0 0 513.01 513.01" style="enable-background:new 0 0 513.01 513.01;" xml:space="preserve" width="512" height="512">
<g>
	<path d="M423.93,358.179l65.866,32.933l13.416-26.833l-58.724-29.362c24.021-31.646,37.016-68.904,37.016-107.222   c0-23.794-4.955-44.499-14.769-62.035c27.165-47.004,25.035-106.684-10.996-152.711l-9.892-12.635L337.821,97.292   c-23.445-3.095-50.337-4.596-81.316-4.596c-29.863,0-55.923,1.398-78.764,4.27L70.068,0.315l-9.891,12.635   c-34.47,44.033-38.967,101.972-12.428,150.159c-10.795,18.068-16.244,39.629-16.244,64.587c0,38.285,12.972,75.512,36.954,107.141   L8.867,364.244l13.276,26.903l66.895-33.011c2.564,2.71,5.012,5.481,7.318,8.321L0,460.988l21.01,21.415l91.871-90.132   c8.149,16.753,9.569,28.686,10.925,34.206c6.605,26.896,29.358,48.811,56.617,54.532c3.608,0.757,7.229,1.251,10.837,1.493   c13.106,18.602,37.619,30.193,65.246,30.193c27.637,0,52.158-11.599,65.26-30.214c3.604-0.242,7.219-0.717,10.823-1.473   c27.589-5.791,51.831-28.519,57.554-58.849c1.932-10.244,5.307-20.266,9.988-29.889L492,482.403l21.01-21.415l-96.355-94.532   C418.948,363.632,421.382,360.875,423.93,358.179z M441.151,44.846c16.886,29.44,18.701,64.103,5.139,94.932   c-9.689-8.991-21.35-16.665-34.998-22.976c-10.78-4.985-22.821-9.157-36.305-12.559L441.151,44.846z M74.777,44.855l65.528,58.821   c-14.414,3.501-27.204,7.861-38.589,13.126c-12.663,5.856-23.615,12.886-32.872,21.051C56.256,107.504,58.36,73.583,74.777,44.855z    M228.068,475.731c11.428-5.294,21.152-13.325,28.437-23.005c7.182,9.543,16.825,17.619,28.446,23.001   c-7.91,4.378-17.922,6.969-28.446,6.969C245.984,482.696,235.977,480.106,228.068,475.731z M226.505,332.696   c8.271,0,15,6.729,15,15h30c0-8.271,6.729-15,15-15s15,6.729,15,15s-6.729,15-15,15h-15v15c0,8.271-6.729,15-15,15s-15-6.729-15-15   v-15h-15c-8.271,0-15-6.729-15-15S218.234,332.696,226.505,332.696z M326.426,451.649c-25.373,5.326-47.422-10.312-53.339-32.125   c12.646-5.031,22.493-15.631,26.484-28.762c18.461-5.612,31.934-22.795,31.934-43.066v-22.918   c0-46.201-10.922-92.465-31.584-133.79l-26.833,13.416c15.644,31.288,25.08,65.722,27.678,100.622   c-4.485-1.503-9.277-2.33-14.262-2.33c-11.515,0-22.033,4.347-30,11.486c-7.967-7.139-18.485-11.486-30-11.486   c-4.984,0-9.777,0.827-14.262,2.33c2.599-34.9,12.034-69.335,27.678-100.622l-26.833-13.417   c-20.662,41.324-31.583,87.588-31.583,133.79c0,0,0,22.918,0,22.918c0,20.271,13.472,37.455,31.934,43.066   c3.991,13.13,13.838,23.731,26.484,28.762c-5.91,21.789-27.934,37.458-53.339,32.125c-19.199-4.029-35.079-21.301-35.079-43.953   c0-16.017,8.625-30.957,22.511-38.989l-15.021-25.968c-10.513,6.081-19.207,14.547-25.572,24.475   c-7.046-11.798-15.739-22.941-25.952-33.175c-29.641-29.703-45.965-67.47-45.965-106.343c0-5.23,0.287-10.224,0.854-15h44.146   c24.813,0,45,20.187,45,45h30c0-41.355-33.645-75-75-75H71.131c8.499-16.559,22.736-29.212,43.177-38.665   c31.477-14.556,76.661-21.335,142.197-21.335c65.535,0,110.72,6.78,142.196,21.335c20.442,9.453,34.679,22.106,43.178,38.665   h-36.624c-41.355,0-75,33.645-75,75h30c0-24.813,20.187-45,45-45h45v-3.02c0.836,5.676,1.25,11.678,1.25,18.02   c0,38.873-16.324,76.639-45.965,106.343c-10.213,10.235-18.906,21.377-25.952,33.176c-6.365-9.928-15.06-18.394-25.572-24.476   l-15.021,25.968c13.885,8.032,22.511,22.972,22.511,38.989C361.505,430.36,345.604,447.624,326.426,451.649z"/>
</g>















</svg>
