<svg id="Capa_1" enable-background="new 0 0 512 512" height="512" viewBox="0 0 512 512" width="512" xmlns="http://www.w3.org/2000/svg"><g><path d="m505.612 157.759c0-47.13-36.663-85.861-82.964-89.173v-2.729c0-36.314-29.543-65.857-65.856-65.857-16.312 0-31.863 6.063-43.803 16.697-16.927-10.842-36.704-16.697-56.989-16.697-20.286 0-40.063 5.855-56.99 16.697-11.94-10.635-27.49-16.697-43.803-16.697-36.313 0-65.855 29.543-65.855 65.855v2.73c-46.301 3.312-82.964 42.043-82.964 89.173v134.652l128.41 90.167 25.114 71.561h20.526l23.369 57.862h104.387l23.367-57.862h20.526l24.888-70.919 128.636-90.834v-134.626zm-469.206 119.05v-30.186c13.964 11.488 31.83 18.396 51.282 18.396h5.854l24.175 68.885zm251.537 205.173h-63.886l-11.245-27.844h86.376zm42.866-57.862h-149.619l-66.37-189.12h-27.132c-28.025 0-50.823-22.799-50.823-50.823h-.458v-26.419c0-32.745 26.64-59.385 59.385-59.385h23.579v-32.518c0-19.761 16.077-35.837 35.838-35.837 11.723 0 22.731 5.764 29.443 15.419l9.486 13.644 12.61-10.822c13.709-11.763 31.2-18.241 49.252-18.241 18.051 0 35.542 6.479 49.251 18.241l12.61 10.821 9.486-13.642c6.714-9.655 17.721-15.42 29.445-15.42 19.761 0 35.838 16.077 35.838 35.838v32.518h23.579c32.745 0 59.385 26.64 59.385 59.385v35.172c-4.163 23.865-25.016 42.07-50.053 42.07h-28.362zm63.311-89.755 24.337-69.347h7.083c18.891 0 36.275-6.531 50.053-17.43v29.246z"/><path d="m154.309 88.633h30.018v30.018h-30.018z"/><path d="m327.751 88.633h30.018v30.018h-30.018z"/><path d="m196.391 353.63h30.018v30.018h-30.018z"/><path d="m285.669 353.63h30.018v30.018h-30.018z"/><path d="m163.492 232.664 14.059 26.522c24.192-12.825 51.524-19.604 79.04-19.604 27.522 0 53.787 6.423 78.064 19.09l13.887-26.613c-28.204-14.717-60.001-22.495-91.951-22.495-32.399.001-64.592 7.988-93.099 23.1z"/><path d="m184.893 289.441 15.466 25.727c16.922-10.173 36.367-15.55 56.232-15.55 19.544 0 38.717 5.215 55.444 15.081l15.25-25.855c-21.344-12.589-45.789-19.244-70.694-19.244-25.314.001-50.106 6.861-71.698 19.841z"/></g></svg>