<svg id="Layer_1" enable-background="new 0 0 512 512" height="512" viewBox="0 0 512 512" width="512" xmlns="http://www.w3.org/2000/svg"><g><path d="m87.255 146.921h30v60.592h-30z"/><g><g><g><path d="m409.745 60.884c-14.542 0-28.381 3.479-40.917 9.731-26.818-2.908-54.217-13.965-76.431-29.832l-.006-.007c-21.767-15.547-51.016-15.546-72.778-.001v-.004c-22.214 15.867-49.621 26.936-76.44 29.844-12.537-6.252-26.376-9.731-40.917-9.731-56.385 0-102.256 52.187-102.256 116.333 0 58.188 37.745 106.533 86.843 115.013 2.904 7.36 4.824 18.626 4.824 39.654 0 37.692 16.122 75.46 44.232 103.622 30.496 30.552 72.656 47.378 118.714 47.378 46.128 0 88.73-16.776 119.959-47.237 29.082-28.367 45.762-66.187 45.762-103.763 0-24.275 2.36-33.896 5.842-39.842 48.599-8.97 85.824-57.041 85.824-114.825 0-64.146-45.871-116.333-102.255-116.333zm-379.745 116.333c0-47.604 32.413-86.333 72.255-86.333s72.255 38.729 72.255 86.333-32.413 86.333-72.255 86.333-72.255-38.728-72.255-86.333zm323.625 236.954c-25.594 24.964-60.757 38.713-99.012 38.713-38.033 0-72.653-13.698-97.481-38.572-9.491-9.508-17.27-20.344-23.104-31.924l121.972-45.175 121.503 45.001c-6.035 11.549-14.073 22.394-23.878 31.957zm36.709-82.287c0 7.404-.841 14.837-2.469 22.176l-131.865-48.839-131.973 48.879c-1.555-7.341-2.36-14.786-2.36-22.216 0-17.408-1.391-30.087-3.595-39.727 27.244-4.833 50.956-21.95 66.62-46.195 5.99 13.637 14.528 26.178 25.376 37.025l21.218-21.209c-17.267-17.266-26.775-40.222-26.775-64.64v-19.921c0-31.989-11.409-61.002-29.839-82.053 21.53-5.769 41.944-15.38 60.45-28.6l.015-.011c12.487-8.914 29.258-8.91 41.741.01 18.508 13.22 38.923 22.832 60.453 28.601-18.43 21.052-29.839 50.065-29.839 82.054v19.921c0 24.417-9.509 47.374-26.773 64.639l21.212 21.215c10.849-10.85 19.389-23.392 25.379-37.03 15.693 24.291 39.464 41.428 66.772 46.224-2.383 9.279-3.748 21.706-3.748 39.697zm19.411-68.333c-39.842 0-72.255-38.729-72.255-86.333s32.413-86.333 72.255-86.333 72.255 38.728 72.255 86.332c0 47.605-32.413 86.334-72.255 86.334z"/></g></g></g><path d="m394.745 146.921h30v60.592h-30z"/></g></svg>