<svg id="Capa_1" enable-background="new 0 0 512 512" height="512" viewBox="0 0 512 512" width="512" xmlns="http://www.w3.org/2000/svg"><g><path d="m189.986 285.653h30.281v30h-30.281z"/><path d="m293.901 285.653h30.282v30h-30.282z"/><path d="m326.221 151.148 50.236-.158.313-.004c38.38-.922 73.727-18.669 96.977-48.689 22.627-29.217 30.822-66.503 22.485-102.297l-29.219 6.806c6.281 26.964.09 55.074-16.985 77.121-13.173 17.01-31.482 28.84-52.072 34.069l22.633-70.347-28.559-9.188-26.564 82.563-30.997.098 10.991-40.006-28.928-7.948-27.192 98.974h-66.684l-27.192-98.974-28.928 7.948 10.991 40.006-30.997-.098-26.563-82.563-28.557 9.188 22.633 70.347c-20.589-5.229-38.898-17.059-52.071-34.069-17.076-22.047-23.267-50.157-16.986-77.121l-29.218-6.806c-8.337 35.795-.142 73.081 22.485 102.297 23.25 30.021 58.596 47.767 96.976 48.688l50.55.162 5.768 20.995h-174.214v15c0 46.24 37.619 83.858 83.859 83.858h17.441c-6.053 27.248-3.236 56.094 8.356 81.63 13.237 29.162 22.151 54.207 28.9 81.207 11.506 46.021 52.673 78.163 100.111 78.163 47.398 0 88.535-32.088 100.08-78.046l.031-.124c6.789-27.154 15.787-52.383 29.175-81.805 11.512-25.299 14.332-53.949 8.343-81.025h17.179c46.239 0 83.858-37.619 83.858-83.858v-15h-174.213zm-225.029 89.853c-24.494 0-45.221-16.437-51.733-38.858h110.472c-12.694 10.796-23.048 23.965-30.578 38.858zm256.787 98.6c-14.153 31.105-23.699 57.893-30.944 86.841l-.029.12c-6.918 27.671-28.957 48.261-56.006 53.892v-28.304l28.953-23.47-18.891-23.305-25.062 20.316-25.063-20.316-18.891 23.305 28.954 23.47v28.303c-27.049-5.631-49.087-26.221-56.005-53.893-7.207-28.827-16.671-55.453-30.688-86.33-19.361-41.133-5.745-96.031 33.396-121.586 15.907-10.796 34.477-16.502 53.702-16.502h29.461c19.315 0 37.957 5.755 53.91 16.645 38.115 24.93 52.808 79.317 33.203 120.814zm52.829-98.6-27.89-.001c-7.528-14.892-17.885-28.057-30.587-38.858h110.211c-6.512 22.422-27.239 38.859-51.734 38.859z"/></g></svg>