<?xml version="1.0" encoding="iso-8859-1"?>
<!-- Generator: Adobe Illustrator 19.0.0, SVG Export Plug-In . SVG Version: 6.00 Build 0)  -->
<svg version="1.1" id="Capa_1" xmlns="http://www.w3.org/2000/svg" xmlns:xlink="http://www.w3.org/1999/xlink" x="0px" y="0px"
	 viewBox="0 0 512 512" style="enable-background:new 0 0 512 512;" xml:space="preserve">
<g>
	<g>
		<path d="M390.412,187.602c-19.327-19.318-42.08-33.954-66.885-43.361c5.091-7.032,8.104-15.662,8.104-24.988
			c0-9.623-3.201-18.51-8.59-25.659c1.155-0.975,2.288-1.983,3.369-3.064c20.677-20.677,20.677-54.319,0.001-74.996
			C316.394,5.517,303.076,0,288.911,0c-12.101,0-23.582,4.025-32.914,11.441C246.663,4.025,235.183,0,223.083,0
			c-14.165,0-27.482,5.517-37.498,15.533c-20.677,20.677-20.677,54.319,0,74.996c1.083,1.082,2.216,2.092,3.373,3.068
			c-5.388,7.149-8.587,16.035-8.587,25.656c0,9.4,3.059,18.096,8.225,25.158c-71.663,27.508-122.732,97.53-122.732,179.345V467.08
			c0,24.769,20.151,44.92,44.921,44.92h290.43c24.77,0,44.921-20.151,44.921-44.92v-145
			C446.134,271.276,426.345,223.518,390.412,187.602z M206.799,36.746c4.349-4.35,10.133-6.746,16.284-6.746
			s11.935,2.396,16.287,6.748c1.416,1.416,2.645,3.014,3.652,4.75c2.684,4.626,7.627,7.474,12.975,7.474s10.291-2.848,12.975-7.474
			c1.008-1.736,2.236-3.334,3.654-4.752C276.977,32.396,282.76,30,288.911,30s11.935,2.396,16.285,6.746
			c8.979,8.979,8.979,23.591,0,32.57c-4.35,4.35-10.134,6.745-16.285,6.745c-1.254,0-2.487,0.174-3.682,0.478h-58.45
			c-1.184-0.301-2.417-0.478-3.695-0.478c-6.152,0-11.937-2.396-16.286-6.745C197.818,60.337,197.818,45.726,206.799,36.746z
			 M301.631,119.253c0,7.011-5.703,12.714-12.714,12.714h-65.834c-7.01,0-12.713-5.703-12.713-12.714s5.703-12.714,12.713-12.714
			h65.834C295.928,106.539,301.631,112.242,301.631,119.253z M416.134,467.08c0,8.227-6.693,14.92-14.921,14.92h-290.43
			c-8.228,0-14.921-6.693-14.921-14.92V323.756c0-88.61,70.89-160.828,158.369-161.789h3.615
			c42.068,0.473,81.55,17.06,111.358,46.854c30.263,30.248,46.93,70.472,46.93,113.26V467.08z"/>
	</g>
</g>
<g>
</g>
<g>
</g>
<g>
</g>
<g>
</g>
<g>
</g>
<g>
</g>
<g>
</g>
<g>
</g>
<g>
</g>
<g>
</g>
<g>
</g>
<g>
</g>
<g>
</g>
<g>
</g>
<g>
</g>
</svg>
