<?xml version="1.0" encoding="UTF-8" standalone="no"?>
<svg
   xmlns:dc="http://purl.org/dc/elements/1.1/"
   xmlns:cc="http://creativecommons.org/ns#"
   xmlns:rdf="http://www.w3.org/1999/02/22-rdf-syntax-ns#"
   xmlns:svg="http://www.w3.org/2000/svg"
   xmlns="http://www.w3.org/2000/svg"
   xmlns:sodipodi="http://sodipodi.sourceforge.net/DTD/sodipodi-0.dtd"
   xmlns:inkscape="http://www.inkscape.org/namespaces/inkscape"
   id="Capa_1"
   enable-background="new 0 0 512 512"
   height="512"
   viewBox="0 0 512 512"
   width="512"
   version="1.1"
   sodipodi:docname="item-handy-haversack.svg"
   inkscape:version="1.0.2 (e86c870879, 2021-01-15)">
  <metadata
     id="metadata634">
    <rdf:RDF>
      <cc:Work
         rdf:about="">
        <dc:format>image/svg+xml</dc:format>
        <dc:type
           rdf:resource="http://purl.org/dc/dcmitype/StillImage" />
      </cc:Work>
    </rdf:RDF>
  </metadata>
  <defs
     id="defs632" />
  <sodipodi:namedview
     pagecolor="#ffffff"
     bordercolor="#666666"
     borderopacity="1"
     objecttolerance="10"
     gridtolerance="10"
     guidetolerance="10"
     inkscape:pageopacity="0"
     inkscape:pageshadow="2"
     inkscape:window-width="2560"
     inkscape:window-height="1388"
     id="namedview630"
     showgrid="false"
     inkscape:zoom="1.3921165"
     inkscape:cx="350.25125"
     inkscape:cy="241.92624"
     inkscape:window-x="1080"
     inkscape:window-y="1132"
     inkscape:window-maximized="0"
     inkscape:current-layer="Capa_1"
     inkscape:document-rotation="0" />
  <g
     id="g627">
    <path
       d="m 447.638,9.019 h -60.395 c -5.523,0 -10,4.477 -10,10 V 86.92 C 364.183,78.121 329.923,62.973 314.765,57.777 314.233,25.827 288.076,0 256,0 223.923,0 197.766,25.827 197.235,57.776 182.077,62.972 147.817,80.12 134.757,88.919 v -69.9 c 0,-5.523 -4.477,-10 -10,-10 H 64.362 c -5.523,0 -10,4.477 -10,10 v 435.758 c 0,31.553 25.673,57.224 57.229,57.224 h 288.818 c 31.556,0 57.228,-25.671 57.228,-57.224 V 19.019 c 10e-4,-5.523 -4.477,-10 -9.999,-10 z M 256,20 c 19.093,0 35.006,13.87 38.191,32.062 -12.318,-2.646 -25.095,-4.04 -38.191,-4.04 -13.097,0 -25.874,1.394 -38.192,4.04 C 220.993,33.87 236.907,20 256,20 Z M 74.362,29.019 h 40.395 v 75.497 c -16.448,14.77 -30.193,32.491 -40.395,52.321 z M 437.637,454.777 C 437.638,475.302 420.938,492 400.409,492 H 111.591 C 91.063,492 74.362,475.302 74.362,454.776 V 229.64 c 0,-89.116 92.51,-161.617 181.638,-161.617 89.127,0 181.638,72.501 181.638,161.617 -10e-5,75.04567 -10e-4,150.09133 -10e-4,225.137 z M 397.242,102.516 V 29.019 h 40.395 V 152.838 C 427.436,133.007 413.69,117.286 397.242,102.516 Z"
       id="path619"
       sodipodi:nodetypes="sssccsccsssssssscsscscsccccccssccsccccccc" />
    <g
       id="g625" />
  </g>
  <path
     d="m 371.40531,300.86524 c -8.83105,-8.83103 -18.4998,-16.51962 -28.82074,-23.00392 -0.98625,-27.2148 -8.75007,-53.76976 -22.59591,-77.12752 -14.34693,-24.20247 -34.82433,-44.41593 -59.21806,-58.45493 -2.95303,-1.69966 -6.58694,-1.69966 -9.53997,0 -24.4492,14.07151 -44.95913,34.3366 -59.3137,58.60603 -13.81269,23.35393 -21.54463,49.88657 -22.51367,77.07714 -22.21402,13.93828 -40.87638,33.11194 -54.18414,55.73208 -14.67143,24.93818 -22.426337,53.49242 -22.426337,82.57583 0,0.17275 0.0034,0.34234 0.01011,0.53295 0.05355,3.34703 1.853935,6.4263 4.752774,8.11255 24.828523,14.44575 53.162813,22.08143 81.940203,22.08143 27.15423,0 53.2253,-6.53339 76.65509,-19.06847 23.5146,12.48981 49.79158,19.06847 76.35163,19.06847 28.77738,0 57.11169,-7.63568 81.94021,-22.08143 2.89885,-1.68625 4.69923,-4.76616 4.75279,-8.11318 0.007,-0.17659 0.0101,-0.35383 0.0101,-0.53232 0,-43.59418 -16.97675,-84.57895 -47.80186,-115.40471 z M 255.99997,161.72538 c 37.07928,23.30165 61.54696,62.36172 66.59491,105.45223 -6.7068,-2.99892 -13.61569,-5.52992 -20.68395,-7.5904 -5.31636,-26.76789 -19.20491,-51.16991 -39.55799,-69.25978 -3.62371,-3.22014 -9.08223,-3.22014 -12.70593,0 -26.75513,23.77916 -42.0998,57.84484 -42.0998,93.46353 0,31.85345 12.28707,62.46756 34.02741,85.59452 -5.25896,3.81752 -10.87049,7.15753 -16.76507,9.96711 -23.51139,-26.41468 -36.38755,-60.09594 -36.38755,-95.5629 0,-49.52254 25.7555,-95.78668 67.57797,-122.06431 z m 25.1524,93.26079 c -8.24834,-1.26868 -16.64969,-1.92277 -25.1524,-1.92277 -8.42684,0 -16.89768,0.67641 -25.31942,2.01394 4.67628,-16.48266 13.32434,-31.73106 25.31432,-44.31329 11.82679,12.44709 20.46146,27.65468 25.1575,44.22212 z m -50.19705,58.46706 c 8.19606,-2.00247 16.58656,-3.0155 25.04465,-3.0155 8.60025,0 17.00798,1.05384 25.08864,3.04037 -4.84329,16.55915 -13.59209,31.31665 -25.09437,43.32832 -11.7573,-12.34 -20.30272,-27.23967 -25.03892,-43.35319 z m -25.32134,72.85989 c -8.40133,2.1574 -17.16417,3.30496 -26.13737,3.30496 -8.47978,0 -16.88684,-1.01304 -25.0912,-3.01679 4.84394,-16.49667 13.73555,-31.62585 25.82562,-44.03088 6.0782,15.70232 14.61216,30.44708 25.40295,43.74271 z m -26.13737,41.55791 c -23.55094,0 -46.76396,-5.79194 -67.48362,-16.79567 1.59445,-43.72678 23.25192,-84.49861 58.14894,-110.47724 0.75228,7.33857 1.99354,14.57707 3.71168,21.67531 -20.66164,18.06182 -34.89573,42.34907 -40.32811,69.04875 -0.96331,4.73556 1.75702,9.44499 6.34021,10.97632 12.79901,4.27654 26.12526,6.44479 39.61026,6.44479 55.35783,0 104.0025,-36.82235 119.69142,-89.02571 5.96282,2.68208 11.65275,5.89968 16.99524,9.60373 -19.42739,58.34339 -74.71447,98.54972 -136.68602,98.54972 z m 152.25827,-85.3854 c 11.87205,12.15319 20.90072,27.19184 25.84604,44.11375 -8.20691,2.00566 -16.61591,3.01805 -25.09758,3.01805 -8.85718,0 -17.59641,-1.11504 -26.11633,-3.3094 10.65183,-13.20385 19.25015,-28.02574 25.36787,-43.8224 z m 0.74846,85.3854 c -19.68305,0 -39.19459,-4.09866 -57.23727,-11.94409 1.17305,-0.853 2.33974,-1.71686 3.49493,-2.60366 4.62654,-3.55294 9.04716,-7.35835 13.25358,-11.37923 13.06167,4.51241 26.65186,6.80051 40.48876,6.80051 13.48499,0 26.81189,-2.16824 39.61025,-6.44478 4.58319,-1.53069 7.30417,-6.24139 6.34023,-10.97631 -11.78982,-57.9513 -63.28933,-100.01222 -122.45385,-100.01222 -9.70827,0 -19.33941,1.13416 -28.75633,3.36743 -0.37616,-3.60205 -0.57059,-7.23531 -0.57059,-10.88836 0,-2.87908 0.12558,-5.7454 0.3602,-8.59451 9.61137,-1.98589 19.32667,-3.00721 28.96672,-3.00721 77.70575,0 141.24179,61.83767 143.98891,138.88547 -20.7203,11.00502 -43.93271,16.79696 -67.48554,16.79696 z"
     id="path1569"
     style="stroke-width:0.637528" />
</svg>
