<?xml version="1.0" encoding="UTF-8" standalone="no"?>
<svg
   xmlns:dc="http://purl.org/dc/elements/1.1/"
   xmlns:cc="http://creativecommons.org/ns#"
   xmlns:rdf="http://www.w3.org/1999/02/22-rdf-syntax-ns#"
   xmlns:svg="http://www.w3.org/2000/svg"
   xmlns="http://www.w3.org/2000/svg"
   xmlns:sodipodi="http://sodipodi.sourceforge.net/DTD/sodipodi-0.dtd"
   xmlns:inkscape="http://www.inkscape.org/namespaces/inkscape"
   version="1.1"
   id="Capa_1"
   x="0px"
   y="0px"
   viewBox="0 0 408.063 408.063"
   style="enable-background:new 0 0 408.063 408.063;"
   xml:space="preserve"
   sodipodi:docname="item-bag-of-holding.svg"
   inkscape:version="1.0.2 (e86c870879, 2021-01-15)"><metadata
   id="metadata198"><rdf:RDF><cc:Work
       rdf:about=""><dc:format>image/svg+xml</dc:format><dc:type
         rdf:resource="http://purl.org/dc/dcmitype/StillImage" /></cc:Work></rdf:RDF></metadata><defs
   id="defs196" /><sodipodi:namedview
   pagecolor="#ffffff"
   bordercolor="#666666"
   borderopacity="1"
   objecttolerance="10"
   gridtolerance="10"
   guidetolerance="10"
   inkscape:pageopacity="0"
   inkscape:pageshadow="2"
   inkscape:window-width="2560"
   inkscape:window-height="1388"
   id="namedview194"
   showgrid="false"
   inkscape:zoom="2.0638092"
   inkscape:cx="239.68491"
   inkscape:cy="186.76991"
   inkscape:window-x="1080"
   inkscape:window-y="1132"
   inkscape:window-maximized="0"
   inkscape:current-layer="Capa_1"
   inkscape:document-rotation="0" />
<path
   d="m 400.64341,108.78706 c -2.29137,-3.24942 -5.55929,-5.55401 -9.32804,-6.62834 v -284.37904 c 0,-27.19522 -16.23652,-43.43043 -43.4291,-43.43043 -51.1027,0 -158.0534,76.67784 -221.95557,122.49215 -6.65609,4.773029 -12.82985,9.198534 -18.40236,13.150959 -61.051821,43.316778 -89.81427,70.912398 -89.81427,136.59455 V 102.16004 C 9.371823,104.55052 3.9777071,112.91259 5.4881123,121.65655 l 3.703995,21.40072 c 1.4324407,8.28542 8.5682127,14.29797 16.9699247,14.29797 0.980507,0 2.209446,-0.0159 4.029068,-0.49554 v 120.98711 c 0,10.05747 3.444993,19.32076 9.206468,26.6891 v 11.61343 c 0,23.94845 19.483302,43.42911 43.431749,43.42911 H 326.20673 c 23.94581,0 43.42647,-19.48066 43.42647,-43.42911 v -11.61343 c 5.76015,-7.37098 9.20647,-16.63163 9.20647,-26.6891 V 156.8597 c 0.93161,0.3885 4.03171,0.49554 4.03171,0.49554 v 0 c 0,0 16.06094,0.80067 16.96728,-14.29797 l 3.70135,-21.40072 c 0.78625,-4.53518 -0.24446,-9.10603 -2.8966,-12.86949 z M 73.620205,308.06283 c -16.659386,0 -30.214711,-13.55267 -30.214711,-30.2147 V 106.91987 H 365.62527 v 170.92826 c 0,16.66203 -13.55532,30.2147 -30.21735,30.2147 z M 115.17551,-79.229982 c 5.58837,-3.964318 11.77931,-8.403033 18.45654,-13.189286 58.50277,-41.943802 167.39994,-120.017082 214.25422,-120.017082 24.97256,0 30.21471,16.43209 30.21471,30.21603 V 97.339429 c 0,2.40883 -3.29567,-3.63396 -5.86851,-3.63396 H 36.798297 c -2.572842,0 -5.868513,6.04659 -5.868513,3.6366 v -50.75384 c 0,-59.797782 25.668961,-84.258942 84.245726,-125.818211 z M 29.457701,142.43487 c -0.619755,0.87743 -1.543441,1.46019 -2.599271,1.64387 -2.21209,0.37661 -4.270892,-1.11265 -4.646181,-3.27321 l -3.703994,-21.4007 c -0.376611,-2.18302 1.091508,-4.26825 3.275848,-4.64619 0.232573,-0.0409 3.760817,-0.52725 4.646181,3.27585 l 3.701352,21.40336 c 0.183679,1.05714 -0.05683,2.12222 -0.673935,2.99702 z M 326.20673,346.36538 H 82.829317 c -16.66203,0 -30.217355,-13.55533 -30.217355,-30.21472 v -0.30851 c 6.656529,3.94463 11.292774,5.43508 21.008243,5.43508 H 335.40792 c 7.61942,0 16.51687,-0.61749 21.01088,-5.43508 v 0.30851 c 0,16.65939 -13.55532,30.21472 -30.21207,30.21472 z m 64.31182,-226.96188 -3.70136,21.40335 c -0.37132,2.16056 -2.44202,3.65511 -4.64354,3.27321 -1.05847,-0.18368 -1.98215,-0.76644 -2.59927,-1.64122 -0.61975,-0.87744 -0.85893,-1.94385 -0.67657,-3.00232 l 3.70135,-21.40335 c 0.86951,-3.66435 4.41097,-3.31417 4.64618,-3.2732 1.05847,0.18368 1.97952,0.76643 2.59927,1.64387 0.61711,0.87478 0.8563,1.94119 0.67394,2.99966 z"
   id="path161"
   style="stroke-width:1.32144"
   sodipodi:nodetypes="ccssccscccscscsssscscsscccsssccssccccsscsscccccccccccscsccccccssccscc" />
<g
   id="g163"
   transform="translate(0,-44)">
</g>
<g
   id="g165"
   transform="translate(0,-44)">
</g>
<g
   id="g167"
   transform="translate(0,-44)">
</g>
<g
   id="g169"
   transform="translate(0,-44)">
</g>
<g
   id="g171"
   transform="translate(0,-44)">
</g>
<g
   id="g173"
   transform="translate(0,-44)">
</g>
<g
   id="g175"
   transform="translate(0,-44)">
</g>
<g
   id="g177"
   transform="translate(0,-44)">
</g>
<g
   id="g179"
   transform="translate(0,-44)">
</g>
<g
   id="g181"
   transform="translate(0,-44)">
</g>
<g
   id="g183"
   transform="translate(0,-44)">
</g>
<g
   id="g185"
   transform="translate(0,-44)">
</g>
<g
   id="g187"
   transform="translate(0,-44)">
</g>
<g
   id="g189"
   transform="translate(0,-44)">
</g>
<g
   id="g191"
   transform="translate(0,-44)">
</g>
<path
   style="fill:none;stroke:#000000;stroke-width:12.5;stroke-linecap:butt;stroke-linejoin:round;stroke-miterlimit:3;stroke-dasharray:none;stroke-opacity:1"
   d="m 65.265183,155.91028 c 0,0 34.487296,9.74438 60.289107,9.8042 25.80181,0.0598 45.834,-0.70372 46.24843,-0.94297 -19.44454,9.97567 -26.36325,18.16001 -43.42428,18.44662 -17.06189,0.28662 -47.180278,-16.23734 -63.113257,-27.30785 z"
   id="path200"
   sodipodi:nodetypes="cscsc" /><path
   style="fill:none;stroke:#000000;stroke-width:12.5;stroke-linecap:butt;stroke-linejoin:round;stroke-miterlimit:3;stroke-dasharray:none;stroke-opacity:1"
   d="m 204.14733,177.72198 c -16.27222,13.58884 -21.99539,36.40645 -32,56.63891 11.63494,0.19679 20.77587,10.59515 32,10.48517 10.59267,-0.1038 17.57875,-10.43573 30,-10.48517 -9.74384,-19.92117 -14.43534,-43.01665 -30,-56.63891 z"
   id="path1029"
   sodipodi:nodetypes="ccacc" /><path
   style="fill:none;stroke:#000000;stroke-width:10;stroke-linecap:butt;stroke-linejoin:round;stroke-miterlimit:3;stroke-dasharray:none;stroke-opacity:1;paint-order:markers stroke fill"
   d="m 66.874037,133.43232 c 29.530525,-11.16295 65.467813,6.95576 100.318603,5.10675 -35.31274,1.99345 -64.67416,-9.58653 -100.318603,-5.10675 z"
   id="path1031"
   sodipodi:nodetypes="ccc" /><path
   style="fill:#ffffff;fill-opacity:1;stroke:#000000;stroke-width:12.5;stroke-linecap:butt;stroke-linejoin:round;stroke-miterlimit:3;stroke-dasharray:none;stroke-opacity:1"
   d="m 342.22963,155.91028 c 0,0 -34.4873,9.74438 -60.28911,9.8042 -25.80181,0.0598 -45.834,-0.70372 -46.24843,-0.94297 19.44454,9.97567 26.36325,18.16001 43.42428,18.44662 17.06189,0.28662 47.18028,-16.23734 63.11326,-27.30785 z"
   id="path1035"
   sodipodi:nodetypes="cscsc" /><path
   style="fill:none;stroke:#000000;stroke-width:10;stroke-linecap:butt;stroke-linejoin:round;stroke-miterlimit:3;stroke-dasharray:none;stroke-opacity:1;paint-order:markers stroke fill"
   d="m 340.18201,133.43232 c -29.53052,-11.16295 -65.46781,6.95576 -100.3186,5.10675 35.31274,1.99345 64.67416,-9.58653 100.3186,-5.10675 z"
   id="path1037"
   sodipodi:nodetypes="ccc" /><path
   style="fill:none;stroke:#000000;stroke-width:12.5;stroke-linecap:round;stroke-linejoin:round;stroke-miterlimit:3;stroke-dasharray:none;stroke-opacity:1"
   d="m 108.67749,261.68924 c 0,0 49.96049,19.95145 95.354,19.95145 46.30463,0 95.354,-20.04855 95.354,-20.04855"
   id="path1041"
   sodipodi:nodetypes="csc" /></svg>
