<svg height="512pt" viewBox="0 -61 512 511" width="512pt" xmlns="http://www.w3.org/2000/svg"><path d="m402.667969.5h-293.335938c-60.285156 0-109.332031 49.046875-109.332031 109.332031v265.027344c0 8.589844 6.964844 15.554687 15.554688 15.554687h480.890624c8.589844 0 15.554688-6.964843 15.554688-15.554687v-265.027344c0-60.285156-49.046875-109.332031-109.332031-109.332031zm78.222656 109.332031v9.957031h-38.226563v-15.261718c0-27.992188-11.117187-53.429688-29.160156-72.148438 38.019532 5.292969 67.386719 38 67.386719 77.453125zm-307.527344-78.222656h165.273438c23.757812 0 44.886719 11.425781 58.210937 29.0625h-281.695312c13.324218-17.636719 34.453125-29.0625 58.210937-29.0625zm-72.917969 72.917969c0-4.351563.40625-8.605469 1.140626-12.746094h308.828124c.730469 4.140625 1.136719 8.394531 1.136719 12.746094v15.261718h-311.105469zm194.050782 93.140625c0 21.230469-17.269532 38.5-38.496094 38.5-21.230469 0-38.5-17.269531-38.5-38.5v-46.765625h76.996094zm-108.105469-46.765625v46.765625c0 .660156.03125 1.308593.050781 1.960937h-85.996094v-48.726562zm-85.945313 79.835937h94.316407c11.789062 21.742188 34.816406 36.539063 61.238281 36.539063s49.449219-14.796875 61.238281-36.539063h94.3125v48.835938c-.582031-.066407-1.175781-.109375-1.777343-.109375h-307.546876c-.601562 0-1.195312.042968-1.78125.109375zm311.105469-31.109375h-85.992187c.019531-.652344.050781-1.304687.050781-1.960937v-46.765625h85.941406zm-311.105469 110.839844c.585938.066406 310.523438.066406 311.105469 0v48.835938h-311.105469zm-69.335937-200.636719c0-39.453125 29.367187-72.160156 67.386719-77.453125-18.042969 18.714844-29.160156 44.15625-29.160156 72.144532v15.265624h-38.226563zm0 41.070313h38.226563v208.402344h-38.226563zm449.78125 208.402344h-38.226563v-208.402344h38.226563zm0 0"/><path d="m256 221.734375c8.589844 0 15.554688-6.964844 15.554688-15.554687v-28.789063c0-8.589844-6.964844-15.554687-15.554688-15.554687s-15.554688 6.964843-15.554688 15.554687v28.789063c0 8.589843 6.964844 15.554687 15.554688 15.554687zm0 0"/></svg>