<?xml version="1.0" encoding="UTF-8" standalone="no"?>
<svg
   version="1.1"
   id="Capa_1"
   x="0px"
   y="0px"
   viewBox="0 0 408.063 408.063"
   style="enable-background:new 0 0 408.063 408.063;"
   xml:space="preserve"
   sodipodi:docname="item-bag-of-holding.svg"
   inkscape:version="1.1 (c4e8f9ed74, 2021-05-24)"
   xmlns:inkscape="http://www.inkscape.org/namespaces/inkscape"
   xmlns:sodipodi="http://sodipodi.sourceforge.net/DTD/sodipodi-0.dtd"
   xmlns="http://www.w3.org/2000/svg"
   xmlns:svg="http://www.w3.org/2000/svg"
   xmlns:rdf="http://www.w3.org/1999/02/22-rdf-syntax-ns#"
   xmlns:cc="http://creativecommons.org/ns#"
   xmlns:dc="http://purl.org/dc/elements/1.1/"><metadata
   id="metadata198"><rdf:RDF><cc:Work
       rdf:about=""><dc:format>image/svg+xml</dc:format><dc:type
         rdf:resource="http://purl.org/dc/dcmitype/StillImage" /></cc:Work></rdf:RDF></metadata><defs
   id="defs196" /><sodipodi:namedview
   pagecolor="#ffffff"
   bordercolor="#666666"
   borderopacity="1"
   objecttolerance="10"
   gridtolerance="10"
   guidetolerance="10"
   inkscape:pageopacity="0"
   inkscape:pageshadow="2"
   inkscape:window-width="2560"
   inkscape:window-height="1388"
   id="namedview194"
   showgrid="false"
   inkscape:zoom="2.0638092"
   inkscape:cx="144.15092"
   inkscape:cy="225.5538"
   inkscape:window-x="1080"
   inkscape:window-y="1132"
   inkscape:window-maximized="1"
   inkscape:current-layer="Capa_1"
   inkscape:document-rotation="0"
   inkscape:pagecheckerboard="0" />
<path
   d="m 400.64341,108.78706 c -2.29137,-3.24942 -5.55929,-5.55401 -9.32804,-6.62834 v -284.37904 c 0,-27.19522 -16.23652,-43.43043 -43.4291,-43.43043 -51.1027,0 -158.0534,76.67784 -221.95557,122.49215 -6.65609,4.773029 -12.82985,9.198534 -18.40236,13.150959 -61.051821,43.316778 -89.81427,70.912398 -89.81427,136.59455 V 102.16004 C 9.371823,104.55052 3.9777071,112.91259 5.4881123,121.65655 l 3.703995,21.40072 c 1.4324407,8.28542 8.5682127,14.29797 16.9699247,14.29797 0.980507,0 2.209446,-0.0159 4.029068,-0.49554 v 120.98711 c 0,10.05747 3.444993,19.32076 9.206468,26.6891 v 11.61343 c 0,23.94845 19.483302,43.42911 43.431749,43.42911 H 326.20673 c 23.94581,0 43.42647,-19.48066 43.42647,-43.42911 v -11.61343 c 5.76015,-7.37098 9.20647,-16.63163 9.20647,-26.6891 V 156.8597 c 0.93161,0.3885 4.03171,0.49554 4.03171,0.49554 v 0 c 0,0 16.06094,0.80067 16.96728,-14.29797 l 3.70135,-21.40072 c 0.78625,-4.53518 -0.24446,-9.10603 -2.8966,-12.86949 z M 73.620205,308.06283 c -16.659386,0 -30.214711,-13.55267 -30.214711,-30.2147 V 106.91987 H 365.62527 v 170.92826 c 0,16.66203 -13.55532,30.2147 -30.21735,30.2147 z M 115.17551,-79.229982 c 5.58837,-3.964318 11.77931,-8.403033 18.45654,-13.189286 58.50277,-41.943802 167.39994,-120.017082 214.25422,-120.017082 24.97256,0 30.21471,16.43209 30.21471,30.21603 V 97.339429 c 0,2.40883 -3.29567,-3.63396 -5.86851,-3.63396 H 36.798297 c -2.572842,0 -5.868513,6.04659 -5.868513,3.6366 v -50.75384 c 0,-59.797782 25.668961,-84.258942 84.245726,-125.818211 z M 29.457701,142.43487 c -0.619755,0.87743 -1.543441,1.46019 -2.599271,1.64387 -2.21209,0.37661 -4.270892,-1.11265 -4.646181,-3.27321 l -3.703994,-21.4007 c -0.376611,-2.18302 1.091508,-4.26825 3.275848,-4.64619 0.232573,-0.0409 3.760817,-0.52725 4.646181,3.27585 l 3.701352,21.40336 c 0.183679,1.05714 -0.05683,2.12222 -0.673935,2.99702 z M 326.20673,346.36538 H 82.829317 c -16.66203,0 -30.217355,-13.55533 -30.217355,-30.21472 v -0.30851 c 6.656529,3.94463 11.292774,5.43508 21.008243,5.43508 H 335.40792 c 7.61942,0 16.51687,-0.61749 21.01088,-5.43508 v 0.30851 c 0,16.65939 -13.55532,30.21472 -30.21207,30.21472 z m 64.31182,-226.96188 -3.70136,21.40335 c -0.37132,2.16056 -2.44202,3.65511 -4.64354,3.27321 -1.05847,-0.18368 -1.98215,-0.76644 -2.59927,-1.64122 -0.61975,-0.87744 -0.85893,-1.94385 -0.67657,-3.00232 l 3.70135,-21.40335 c 0.86951,-3.66435 4.41097,-3.31417 4.64618,-3.2732 1.05847,0.18368 1.97952,0.76643 2.59927,1.64387 0.61711,0.87478 0.8563,1.94119 0.67394,2.99966 z"
   id="path161"
   style="stroke-width:1.32144"
   sodipodi:nodetypes="ccssccscccscscsssscscsscccsssccssccccsscsscccccccccccscsccccccssccscc" />
<g
   id="g163"
   transform="translate(0,-44)">
</g>
<g
   id="g165"
   transform="translate(0,-44)">
</g>
<g
   id="g167"
   transform="translate(0,-44)">
</g>
<g
   id="g169"
   transform="translate(0,-44)">
</g>
<g
   id="g171"
   transform="translate(0,-44)">
</g>
<g
   id="g173"
   transform="translate(0,-44)">
</g>
<g
   id="g175"
   transform="translate(0,-44)">
</g>
<g
   id="g177"
   transform="translate(0,-44)">
</g>
<g
   id="g179"
   transform="translate(0,-44)">
</g>
<g
   id="g181"
   transform="translate(0,-44)">
</g>
<g
   id="g183"
   transform="translate(0,-44)">
</g>
<g
   id="g185"
   transform="translate(0,-44)">
</g>
<g
   id="g187"
   transform="translate(0,-44)">
</g>
<g
   id="g189"
   transform="translate(0,-44)">
</g>
<g
   id="g191"
   transform="translate(0,-44)">
</g>
<path
   style="color:#000000;stroke-linejoin:round;stroke-miterlimit:3;-inkscape-stroke:none;stroke:none"
   d="m 66.964844,149.89648 a 6.250625,6.250625 0 0 0 -5.265625,11.14649 c 8.285327,5.75679 19.993304,12.77145 32.041015,18.43555 12.047716,5.66409 24.134656,10.1665 34.744136,9.98828 9.5153,-0.15985 16.86012,-2.73073 23.63477,-6.31446 6.77466,-3.58372 13.16462,-8.01192 22.53711,-12.82031 l -0.01,-0.0176 c 0.1421,-0.0778 0.1111,-0.0326 0.28125,-0.13086 a 6.250625,6.250625 0 0 0 -5.9375,-10.9707 c 0.5909,-0.32134 0.98271,-0.50612 1.17969,-0.55664 -0.55453,0.0365 -1.34781,0.0812 -2.41797,0.12891 -2.28031,0.10165 -5.60222,0.21638 -9.71484,0.32226 -8.22524,0.21177 -19.63326,0.38717 -32.46875,0.35742 -24.24112,-0.0562 -58.603516,-9.56836 -58.603516,-9.56836 z m 103.871096,8.71094 c -0.0118,0.001 -0.12806,0.01 -0.17578,0.0137 0.005,0.001 0.0144,0.0109 0.0215,0.01 0.15732,-0.0262 0.17132,-0.0252 0.1543,-0.0234 z m -2.1211,0.73438 c -0.0136,0.007 -0.0216,0.0125 -0.0352,0.0195 l -0.002,-0.002 c 0.0231,-0.0133 0.0146,-0.005 0.0371,-0.0176 z m -64.64648,10.98437 c 7.17415,0.96329 14.54662,1.62262 21.4707,1.63867 8.44538,0.0196 14.63979,-0.12709 21.37696,-0.23632 -0.1941,0.1049 -0.45071,0.2735 -0.64258,0.375 -5.81108,3.074 -10.45428,4.73847 -18,4.86523 -5.49112,0.0922 -14.66079,-2.6014 -24.20508,-6.64258 z"
   id="path200" /><path
   style="color:#000000;stroke-linejoin:round;stroke-miterlimit:3;-inkscape-stroke:none;stroke:none"
   d="m 204.2207,171.47266 a 6.250625,6.250625 0 0 0 -4.08008,1.45117 c -18.36085,15.33304 -23.9989,39.25827 -33.5957,58.66601 a 6.250625,6.250625 0 0 0 5.4961,9.01953 c 3.98402,0.0674 8.28197,2.06763 13.43164,4.68165 5.14966,2.61402 11.17786,5.87874 18.73632,5.80468 7.31463,-0.0717 12.77589,-3.50974 17.31836,-6.0664 4.54247,-2.55667 8.16212,-4.40013 12.64453,-4.41797 a 6.250625,6.250625 0 0 0 5.58985,-8.9961 c -9.25402,-18.91974 -13.76729,-43.07766 -31.49805,-58.5957 a 6.250625,6.250625 0 0 0 -4.04297,-1.54687 z m -0.19922,15.12109 c 9.07884,10.68613 14.15519,26.77239 21.24219,43.04687 -3.80412,1.22384 -7.10816,2.94322 -9.86719,4.4961 -4.70404,2.6476 -8.03251,4.42686 -11.31054,4.45898 -3.66566,0.0359 -7.81952,-1.84431 -12.95508,-4.45117 -2.96738,-1.50627 -6.30738,-3.17544 -10.0293,-4.39844 7.40435,-16.39931 13.1285,-32.41851 22.91992,-43.15234 z"
   id="path1029" /><path
   style="color:#000000;stroke-linejoin:round;stroke-miterlimit:3;-inkscape-stroke:none;paint-order:markers stroke fill;stroke:none"
   d="m 90.117187,124.75781 c -8.510732,-0.10197 -16.896868,0.93052 -25.011718,3.99805 a 5.0005,5.0005 0 0 0 2.392578,9.63672 c 34.243963,-4.30377 63.411103,7.19753 99.958983,5.13867 0.006,-3.4e-4 0.0116,3.4e-4 0.0176,0 a 5.0005,5.0005 0 0 0 -0.54688,-9.98438 c -0.006,3.1e-4 -0.0118,-3e-4 -0.0176,0 -16.46657,0.87024 -33.80832,-3.04669 -51.03125,-5.98242 -8.6145,-1.46838 -17.25099,-2.70467 -25.761723,-2.80664 z"
   id="path1031" /><path
   style="color:#000000;stroke-linejoin:round;stroke-miterlimit:3;-inkscape-stroke:none;stroke:none"
   d="m 340.5293,149.89648 c 0,0 -34.3624,9.51216 -58.60352,9.56836 -12.83549,0.0297 -24.24351,-0.14565 -32.46875,-0.35742 -4.11262,-0.10588 -7.43258,-0.22061 -9.71289,-0.32226 -1.0702,-0.0477 -1.86539,-0.0924 -2.41992,-0.12891 0.19698,0.0505 0.58879,0.2353 1.17969,0.55664 a 6.250625,6.250625 0 0 0 -5.9375,10.9707 c 0.17112,0.0988 0.14044,0.0527 0.2832,0.13086 l -0.01,0.0176 c 9.37249,4.80839 15.7605,9.23659 22.53516,12.82031 6.77466,3.58373 14.12143,6.15461 23.63672,6.31446 10.60948,0.17822 22.69643,-4.32419 34.74414,-9.98828 12.04771,-5.6641 23.75373,-12.67876 32.03906,-18.43555 a 6.250625,6.250625 0 0 0 -5.26562,-11.14649 z m -103.8711,8.71094 c -0.017,-0.002 -0.001,-0.003 0.15625,0.0234 0.007,0.001 0.0161,-0.009 0.0215,-0.01 -0.0486,-0.004 -0.16583,-0.0124 -0.17774,-0.0137 z m 2.1211,0.73438 c 0.0225,0.0129 0.014,0.004 0.0371,0.0176 l -0.002,0.002 c -0.0136,-0.007 -0.0216,-0.0125 -0.0351,-0.0195 z m 64.64843,10.98437 c -9.54464,4.04142 -18.71572,6.73483 -24.20703,6.64258 -7.54572,-0.12676 -12.18892,-1.79123 -18,-4.86523 -0.19187,-0.1015 -0.44848,-0.2701 -0.64258,-0.375 6.73718,0.10923 12.93158,0.2559 21.37696,0.23632 6.92473,-0.0161 14.29787,-0.67523 21.47265,-1.63867 z"
   id="path1035" /><path
   style="color:#000000;stroke-linejoin:round;stroke-miterlimit:3;-inkscape-stroke:none;paint-order:markers stroke fill;stroke:none"
   d="m 316.93945,124.75781 c -8.51073,0.10197 -17.14722,1.33826 -25.76172,2.80664 -17.2236,2.93585 -34.56606,6.85307 -51.0332,5.98242 -0.005,-2.7e-4 -0.0105,2.8e-4 -0.0156,0 a 5.0005,5.0005 0 0 0 -0.54688,9.98438 c 0.005,3e-4 0.0103,-3e-4 0.0156,0 36.54881,2.05939 65.71635,-9.44252 99.96093,-5.13867 a 5.0005,5.0005 0 0 0 2.39063,-9.63672 c -8.11485,-3.06753 -16.49903,-4.10002 -25.00977,-3.99805 z"
   id="path1037" /><path
   style="color:#000000;stroke-linecap:round;stroke-linejoin:round;stroke-miterlimit:3;-inkscape-stroke:none;stroke:none"
   d="m 297.02148,255.80664 c 0,0 -48.48969,19.58398 -92.99023,19.58398 -43.56212,0 -93.03516,-19.50585 -93.03516,-19.50585 a 6.25,6.25 0 0 0 -8.12304,3.48632 6.25,6.25 0 0 0 3.48633,8.12305 c 0,0 50.44707,20.39648 97.67187,20.39648 48.10863,0 97.71875,-20.51367 97.71875,-20.51367 a 6.25,6.25 0 0 0 3.41992,-8.15039 6.25,6.25 0 0 0 -8.14844,-3.41992 z"
   id="path1041" /></svg>
