<?xml version="1.0" encoding="iso-8859-1"?>
<!-- Generator: Adobe Illustrator 19.0.0, SVG Export Plug-In . SVG Version: 6.00 Build 0)  -->
<svg version="1.1" id="Capa_1" xmlns="http://www.w3.org/2000/svg" xmlns:xlink="http://www.w3.org/1999/xlink" x="0px" y="0px"
	 viewBox="0 0 512 512" style="enable-background:new 0 0 512 512;" xml:space="preserve">
<g>
	<g>
		<g>
			<path d="M501.333,277.333H448v-192c0-23.531-19.146-42.667-42.667-42.667h-64C341.333,19.135,322.188,0,298.667,0h-85.333
				c-23.521,0-42.667,19.135-42.667,42.667h-64C83.146,42.667,64,61.802,64,85.333v192H10.667C4.771,277.333,0,282.104,0,288
				v117.333C0,428.865,19.146,448,42.667,448H64v21.333C64,492.865,83.146,512,106.667,512h298.667
				C428.854,512,448,492.865,448,469.333V448h21.333C492.854,448,512,428.865,512,405.333V288
				C512,282.104,507.229,277.333,501.333,277.333z M64,426.667H42.667c-11.771,0-21.333-9.573-21.333-21.333v-64H64V426.667z
				 M64,320H21.333v-21.333H64V320z M213.333,21.333h85.333c11.771,0,21.333,9.573,21.333,21.333H192
				C192,30.906,201.563,21.333,213.333,21.333z M426.667,469.333c0,11.76-9.563,21.333-21.333,21.333H106.667
				c-11.771,0-21.333-9.573-21.333-21.333V207.397c6.302,3.676,13.529,5.936,21.333,5.936H128V224
				c0,5.896,4.771,10.667,10.667,10.667h42.667c5.896,0,10.667-4.771,10.667-10.667v-10.667h128V224
				c0,5.896,4.771,10.667,10.667,10.667h42.667c5.896,0,10.667-4.771,10.667-10.667v-10.667h21.333
				c7.805,0,15.031-2.26,21.333-5.936V469.333z M149.333,213.333v-42.667h21.333v42.667H149.333z M341.333,213.333v-42.667h21.333
				v42.667H341.333z M426.667,170.667c0,11.76-9.563,21.333-21.333,21.333H384v-32c0-5.896-4.771-10.667-10.667-10.667h-42.667
				c-5.896,0-10.667,4.771-10.667,10.667v32H192v-32c0-5.896-4.771-10.667-10.667-10.667h-42.667
				c-5.896,0-10.667,4.771-10.667,10.667v32h-21.333c-11.771,0-21.333-9.573-21.333-21.333V85.333
				c0-11.76,9.563-21.333,21.333-21.333h298.667c11.771,0,21.333,9.573,21.333,21.333V170.667z M490.667,405.333
				c0,11.76-9.563,21.333-21.333,21.333H448v-85.333h42.667V405.333z M490.667,320H448v-21.333h42.667V320z"/>
			<path d="M373.333,277.333H138.667c-5.896,0-10.667,4.771-10.667,10.667v117.333C128,428.865,147.146,448,170.667,448h170.667
				C364.854,448,384,428.865,384,405.333V288C384,282.104,379.229,277.333,373.333,277.333z M360.81,298.667
				C352.027,328.47,307.747,352,256,352s-96.027-23.53-104.81-53.333H360.81z M362.667,405.333c0,11.76-9.563,21.333-21.333,21.333
				H170.667c-11.771,0-21.333-9.573-21.333-21.333v-69.572c22.745,22.811,61.638,37.572,106.667,37.572s83.922-14.76,106.667-37.572
				V405.333z"/>
		</g>
	</g>
</g>
<g>
</g>
<g>
</g>
<g>
</g>
<g>
</g>
<g>
</g>
<g>
</g>
<g>
</g>
<g>
</g>
<g>
</g>
<g>
</g>
<g>
</g>
<g>
</g>
<g>
</g>
<g>
</g>
<g>
</g>
</svg>
