<?xml version="1.0" encoding="UTF-8" standalone="no"?>
<svg
   xmlns:dc="http://purl.org/dc/elements/1.1/"
   xmlns:cc="http://creativecommons.org/ns#"
   xmlns:rdf="http://www.w3.org/1999/02/22-rdf-syntax-ns#"
   xmlns:svg="http://www.w3.org/2000/svg"
   xmlns="http://www.w3.org/2000/svg"
   xmlns:sodipodi="http://sodipodi.sourceforge.net/DTD/sodipodi-0.dtd"
   xmlns:inkscape="http://www.inkscape.org/namespaces/inkscape"
   height="512pt"
   viewBox="-6 0 512 512"
   width="512pt"
   version="1.1"
   id="svg491"
   sodipodi:docname="weight.svg"
   inkscape:version="1.0.2 (e86c870879, 2021-01-15)">
  <metadata
     id="metadata497">
    <rdf:RDF>
      <cc:Work
         rdf:about="">
        <dc:format>image/svg+xml</dc:format>
        <dc:type
           rdf:resource="http://purl.org/dc/dcmitype/StillImage" />
        <dc:title></dc:title>
      </cc:Work>
    </rdf:RDF>
  </metadata>
  <defs
     id="defs495" />
  <sodipodi:namedview
     pagecolor="#ffffff"
     bordercolor="#666666"
     borderopacity="1"
     objecttolerance="10"
     gridtolerance="10"
     guidetolerance="10"
     inkscape:pageopacity="0"
     inkscape:pageshadow="2"
     inkscape:window-width="2560"
     inkscape:window-height="1388"
     id="namedview493"
     showgrid="false"
     inkscape:zoom="1.4765625"
     inkscape:cx="276.80283"
     inkscape:cy="302.7147"
     inkscape:window-x="1080"
     inkscape:window-y="1132"
     inkscape:window-maximized="0"
     inkscape:current-layer="svg491" />
  <path
     d="m427.863281 136.527344h-114.414062c12.054687-14.445313 19.324219-33.019532 19.324219-53.261719 0-45.914063-37.351563-83.265625-83.261719-83.265625-45.914063 0-83.265625 37.351562-83.265625 83.265625 0 20.242187 7.269531 38.816406 19.324218 53.261719h-114.414062l-71.15625 375.472656h499.019531zm-178.351562-106.527344c29.367187 0 53.261719 23.894531 53.261719 53.265625 0 29.367187-23.894532 53.261719-53.261719 53.261719-29.371094 0-53.265625-23.894532-53.265625-53.261719 0-29.371094 23.894531-53.265625 53.265625-53.265625zm-153.507813 136.527344h307.011719l59.785156 315.472656h-426.582031zm0 0"
     id="path485" />
  <g
     id="g538"
     transform="matrix(0.9185354,0,0,0.9185354,14.462067,59.26066)">
	
	<path
   d="m 255.894,348.393 c -24.813,0 -45,20.187 -45,45 0,24.813 20.187,44.999 45,44.999 24.813,0 45,-20.187 45,-44.999 0,-24.813 -20.187,-45 -45,-45 z m 0,59.999 c -8.271,0 -15,-6.729 -15,-14.999 0,-8.271 6.729,-15 15,-15 8.271,0 15,6.729 15,15 0,8.271 -6.729,14.999 -15,14.999 z"
   id="path534" />

	<path
   d="m 255.894,141.893 c -24.813,0 -45,20.187 -45,45 v 86.5 c 0,24.813 20.188,45 45.001,45 24.813,0 44.999,-20.187 44.999,-45 v -86.5 c 0,-24.813 -20.187,-45 -45,-45 z m 15,131.5 c 0,8.271 -6.729,15 -15,15 -8.271,0 -15,-6.729 -15,-15 v -86.5 c 0,-8.271 6.729,-15 15,-15 h 0.001 c 8.271,0 14.999,6.729 14.999,15 z"
   id="path536" />

</g>
</svg>
