<svg id="Capa_1" enable-background="new 0 0 512 512" height="512" viewBox="0 0 512 512" width="512" xmlns="http://www.w3.org/2000/svg"><g><path d="m492.164 460.792v-213.901l10.46-65.194-75.739-100.372v-30.117h26.051v-30h-56.051v60.118l-75.739 100.372 10.46 65.194v47.94h-30v-23.024h-30v23.024h-31.211v-23.024h-30v23.024h-30v-47.94l10.46-65.194-75.74-100.373v-30.117h26.051v-30h-56.051v60.118l-75.739 100.371 10.46 65.194v213.901h-19.836v30h512v-30zm-22.962-260.161-4.823 30.065h-104.988l-4.823-30.065zm-102.123-30 44.806-59.378 44.806 59.378zm95.085 90.065v200.097h-100.559v-200.097zm-130.559 64.136v135.961h-30v-47.87c0-25.146-20.459-45.605-45.605-45.605s-45.605 20.458-45.605 45.605v47.87h-30v-135.961zm-60 135.96h-31.211v-47.87c0-8.604 7.001-15.605 15.605-15.605s15.605 7 15.605 15.605v47.87zm-223.984-230.096-4.823-30.065h114.635l-4.823 30.065zm7.689-60.065 44.806-59.378 44.806 59.378zm-5.474 90.065h100.559v200.097h-100.559z"/><path d="m85.115 309.171h30v30h-30z"/><path d="m85.115 382.317h30v30h-30z"/><path d="m396.885 309.171h30v30h-30z"/><path d="m396.885 382.317h30v30h-30z"/></g></svg>