<svg id="Capa_1" enable-background="new 0 0 512 512" height="512" viewBox="0 0 512 512" width="512" xmlns="http://www.w3.org/2000/svg"><g id="XMLID_324_"><g id="XMLID_431_"><path id="XMLID_987_" d="m490 443.917h-10v-105.917h10c5.523 0 10-4.477 10-10v-56c0-5.523-4.477-10-10-10h-10v-108h10c5.523 0 10-4.477 10-10v-44c0-5.523-4.477-10-10-10h-10v-38c0-5.523-4.477-10-10-10h-123.36c-12.974 0-24.984-5.469-32.95-15.004-14.332-17.156-35.359-26.996-57.69-26.996s-43.358 9.84-57.69 26.996c-7.966 9.535-19.976 15.004-32.95 15.004h-123.36c-5.523 0-10 4.477-10 10v38h-10c-5.523 0-10 4.477-10 10v44c0 5.523 4.477 10 10 10h10v108h-10c-5.523 0-10 4.477-10 10v56c0 5.523 4.477 10 10 10h10v105.917h-10c-5.523 0-10 4.477-10 10v48.083c0 5.523 4.477 10 10 10h468c5.523 0 10-4.477 10-10v-48.083c0-5.523-4.477-10-10-10zm-30 0h-24v-59.917c0-5.523-4.477-10-10-10h-48c-5.523 0-10 4.477-10 10v59.917h-24v-105.917h116zm-44 0h-28v-49.917h28zm-20 20h32v28.083h-32zm-106-89.917h-68c-5.523 0-10 4.477-10 10v108h-24v-154h136v154h-24v-108c0-5.523-4.477-10-10-10zm-166 69.917h-28v-49.917h28zm-8 20v28.083h-32v-28.083zm20 0h32v28.083h-32zm-20-181.917v36h-32v-36zm280 36v-36h32v36zm-52-36h32v36h-32zm64-20h-48v-60h48zm-84 56h-32v-36h32zm-84-36h32v36h-32zm40-20h-48v-60h48zm-60 20v36h-32v-36zm-68-20h-48v-60h48zm-16 20h32v36h-32zm344 36h-32v-36h32zm-448-208h179c5.523 0 10-4.477 10-10s-4.477-10-10-10h-159v-28h113.36c18.918 0 36.522-8.085 48.299-22.182 10.521-12.594 25.954-19.818 42.341-19.818s31.82 7.224 42.341 19.818c11.777 14.097 29.381 22.182 48.299 22.182h113.36v28h-159c-5.523 0-10 4.477-10 10s4.477 10 10 10h179v24h-448zm20 44h408v108h-32v-70c0-5.523-4.477-10-10-10h-68c-5.523 0-10 4.477-10 10v70h-40v-70c0-5.523-4.477-10-10-10h-68c-5.523 0-10 4.477-10 10v70h-40v-70c0-5.523-4.477-10-10-10h-68c-5.523 0-10 4.477-10 10v70h-32zm-20 128h32v36h-32zm20 56h116v105.917h-24v-59.917c0-5.523-4.477-10-10-10h-48c-5.523 0-10 4.477-10 10v59.917h-24zm-20 125.917h32v28.083h-32zm200 28.083v-98h48v98zm112-28.083h32v28.083h-32zm136 28.083h-32v-28.083h32z"/><path id="XMLID_1361_" d="m256 110c2.63 0 5.21-1.07 7.07-2.93s2.93-4.44 2.93-7.07-1.07-5.21-2.93-7.07-4.44-2.93-7.07-2.93-5.21 1.07-7.07 2.93-2.93 4.44-2.93 7.07 1.07 5.21 2.93 7.07 4.44 2.93 7.07 2.93z"/></g></g></svg>