<svg id="Layer_1" enable-background="new 0 0 512.002 512.002" height="512" viewBox="0 0 512.002 512.002" width="512" xmlns="http://www.w3.org/2000/svg"><g><g><path d="m243.697 454.254h-27c-5.523 0-10 4.477-10 10s4.477 10 10 10h27c5.523 0 10-4.477 10-10s-4.477-10-10-10z"/><path d="m281.698 405.254h-27c-5.523 0-10 4.477-10 10s4.477 10 10 10h27c5.522 0 10-4.477 10-10s-4.478-10-10-10z"/><path d="m382.807 232.377h-20.001v-91.38c12.158-3.832 21-15.211 21-28.619 0-15.297-11.512-27.949-26.326-29.767l-75.323-68.261c-.711-.644-1.42-1.306-2.132-1.97-5.912-5.515-13.27-12.38-24.07-12.38s-18.158 6.865-24.07 12.381c-.712.664-1.42 1.326-2.13 1.969l-75.34 68.275c-14.762 1.866-26.219 14.493-26.219 29.753v20c0 13.407 8.842 24.787 21 28.618v71.38h-20c-16.542 0-30 13.458-30 30 0 16.207 12.92 29.444 29.001 29.974v42.026c0 5.523 4.477 10 10 10h11v157.624c0 5.523 4.477 10 10 10h193.61c5.522 0 10-4.477 10-10v-157.622h11c5.522 0 10-4.477 10-10v-22.025c16.08-.53 29.001-13.768 29.001-29.975v-20c-.001-16.543-13.459-30.001-30.001-30.001zm-139.621-203.208c.781-.708 1.561-1.435 2.343-2.165 3.861-3.602 7.507-7.004 10.426-7.004 2.918 0 6.566 3.402 10.426 7.004.782.73 1.563 1.458 2.345 2.167l58.713 53.208h-142.968zm-94.99 83.209c0-5.514 4.486-10 10-10h195.611c5.514 0 10 4.486 10 10s-4.486 10-10 10h-175.61c-5.523 0-10 4.477-10 10 0 5.514-4.486 10-10 10s-10-4.486-10-10v-20zm21 47.895c8.036-3.18 14.389-9.721 17.287-17.894h156.324v89.999h-50.609v-48.123c0-10.752-8.748-19.5-19.5-19.5h-33.392c-10.752 0-19.5 8.748-19.5 19.5v48.123h-50.609v-72.105zm103.001 72.104h-32.392v-47.623h32.392zm-103.001 259.625v-87.622h23.501c5.523 0 10-4.477 10-10s-4.477-10-10-10h-23.501v-40.002h173.61v27.876h-23.609c-5.522 0-10 4.477-10 10s4.478 10 10 10h23.609v62h-22.609c-5.522 0-10 4.477-10 10s4.478 10 10 10h22.609v17.748zm223.611-209.624c0 5.514-4.486 10-10 10s-10-4.486-10-10c0-5.523-4.478-10-10-10h-61.802c-5.522 0-10 4.477-10 10s4.478 10 10 10h53.516c1.845 5.205 5.097 9.746 9.285 13.185v18.815h-11-193.61-11v-32h62.809c5.523 0 10-4.477 10-10s-4.477-10-10-10h-81.81c-5.514 0-10-4.486-10-10s4.486-10 10-10h253.612c5.514 0 10 4.486 10 10z"/><path d="m256.008 272.377h-.007c-5.523 0-9.996 4.477-9.996 10s4.48 10 10.003 10c5.522 0 10-4.477 10-10s-4.477-10-10-10z"/></g></g></svg>