<?xml version="1.0" encoding="iso-8859-1"?>
<!-- Generator: Adobe Illustrator 19.0.0, SVG Export Plug-In . SVG Version: 6.00 Build 0)  -->
<svg version="1.1" id="Capa_1" xmlns="http://www.w3.org/2000/svg" xmlns:xlink="http://www.w3.org/1999/xlink" x="0px" y="0px"
	 viewBox="0 0 512 512" style="enable-background:new 0 0 512 512;" xml:space="preserve">
<g>
	<g>
		<path d="M496.964,482.004h-44.993V267.453c17.53,6.199,37.035,1.005,49.162-13.129c16.135-18.831,14.071-47.206-4.906-63.467
			L285.282,10.905c-16.966-14.537-41.596-14.537-58.538-0.021L15.75,190.879c-18.846,16.149-21.105,44.512-4.871,63.459
			c12.422,14.464,32.141,19.078,49.151,13.1v214.567H15.036c-8.283,0-14.998,6.715-14.998,14.998S6.753,512,15.036,512
			c17.446,0,462.811,0,481.928,0c8.283,0,14.998-6.715,14.998-14.998S505.248,482.004,496.964,482.004z M54.813,236.416
			c-6.293,5.376-15.793,4.65-21.167-1.608c-5.467-6.381-4.578-15.84,1.597-21.13L246.235,33.684
			c5.659-4.849,13.873-4.848,19.555,0.021l210.945,179.952c6.302,5.4,7.008,14.864,1.628,21.143
			c-5.278,6.152-14.715,7.154-21.185,1.606c-7.598-6.479-177.096-151.012-191.446-163.247c-5.607-4.78-13.855-4.781-19.463,0
			C232.228,85.132,60.554,231.52,54.813,236.416z M211.007,482.004h-59.991V331.027h59.991V482.004z M421.976,482.004H241.002
			V316.029c0-8.283-6.715-14.998-14.998-14.998h-89.987c-8.283,0-14.998,6.715-14.998,14.998v165.975H90.025V245.809L256,104.28
			l165.975,141.529V482.004z"/>
	</g>
</g>
<g>
	<g>
		<path d="M375.982,301.031h-89.987c-8.283,0-14.998,6.715-14.998,14.998v89.987c0,8.283,6.715,14.998,14.998,14.998h89.987
			c8.283,0,14.998-6.715,14.998-14.998v-89.987C390.98,307.746,384.266,301.031,375.982,301.031z M360.985,391.018h-59.991v-59.991
			h59.991V391.018z"/>
	</g>
</g>
<g>
	<g>
		<path d="M256,150.054c-24.809,0-44.993,20.184-44.993,44.993S231.191,240.04,256,240.04s44.993-20.184,44.993-44.993
			S280.81,150.054,256,150.054z M256,210.045c-8.27,0-14.998-6.728-14.998-14.998s6.728-14.998,14.998-14.998
			c8.27,0,14.998,6.728,14.998,14.998S264.27,210.045,256,210.045z"/>
	</g>
</g>
<g>
</g>
<g>
</g>
<g>
</g>
<g>
</g>
<g>
</g>
<g>
</g>
<g>
</g>
<g>
</g>
<g>
</g>
<g>
</g>
<g>
</g>
<g>
</g>
<g>
</g>
<g>
</g>
<g>
</g>
</svg>
