<?xml version="1.0" encoding="iso-8859-1"?>
<!-- Generator: Adobe Illustrator 19.0.0, SVG Export Plug-In . SVG Version: 6.00 Build 0)  -->
<svg version="1.1" id="Capa_1" xmlns="http://www.w3.org/2000/svg" xmlns:xlink="http://www.w3.org/1999/xlink" x="0px" y="0px"
	 viewBox="0 0 511.999 511.999" style="enable-background:new 0 0 511.999 511.999;" xml:space="preserve">
<g>
	<g>
		<path d="M469.092,167.108H349.128v-13.657c0-8.284-6.716-15-15-15h-8.059c-35.247-48.086-91.884-76.795-151.504-76.795
			c-59.621,0-116.258,28.708-151.504,76.794l-0.001,0.001H15c-8.284,0-15,6.716-15,15v160.731c0,8.284,6.716,15,15,15h24.233
			c7.492,68.047,65.322,121.161,135.331,121.161s127.838-53.114,135.33-121.161h24.233c8.284,0,15-6.716,15-15v-61.259h119.964
			c23.659,0,42.908-19.249,42.908-42.908C511.999,186.356,492.751,167.108,469.092,167.108z M174.564,91.655
			c42.261,0,82.742,17.169,112.15,46.795h-224.3C91.822,108.824,132.303,91.655,174.564,91.655z M126.416,287.652
			c-2.066,3.735-3.703,7.736-4.861,11.936H69.411c2.505-18.138,9.602-34.83,20.088-48.853L126.416,287.652z M110.657,229.468
			c14.013-10.598,30.726-17.8,48.907-20.383v52.202c-4.246,1.206-8.282,2.907-12.046,5.043L110.657,229.468z M69.525,329.588h52.261
			c1.198,4.097,2.86,7.996,4.927,11.639l-36.862,36.862C79.332,364.18,72.157,347.612,69.525,329.588z M159.565,419.278
			c-17.982-2.555-34.529-9.624-48.447-20.031l36.917-36.917c3.615,2,7.479,3.595,11.53,4.746V419.278z M149.573,314.182
			c0-13.78,11.211-24.991,24.991-24.991c13.779,0,24.99,11.211,24.99,24.991c0,13.78-11.211,24.991-24.99,24.991
			C160.784,339.173,149.573,327.962,149.573,314.182z M189.565,261.288v-52.202c18.181,2.582,34.893,9.785,48.906,20.382
			L201.61,266.33C197.847,264.195,193.811,262.494,189.565,261.288z M189.564,419.278v-52.202c4.051-1.151,7.915-2.746,11.529-4.745
			l36.917,36.917C224.093,409.655,207.545,416.724,189.564,419.278z M259.277,378.089l-36.862-36.862
			c2.067-3.643,3.729-7.542,4.927-11.639h52.261C276.971,347.612,269.796,364.18,259.277,378.089z M227.574,299.588
			c-1.158-4.2-2.795-8.201-4.861-11.936l36.917-36.917c10.485,14.022,17.582,30.715,20.087,48.853H227.574z M319.128,182.108v55.815
			v61.259h-9.233c-7.492-68.047-65.321-121.161-135.33-121.161S46.725,231.135,39.233,299.182H30V168.451h289.128V182.108z
			 M469.092,222.923H349.128v-25.815h119.964c7.117,0,12.908,5.791,12.908,12.908S476.209,222.923,469.092,222.923z"/>
	</g>
</g>
<g>
</g>
<g>
</g>
<g>
</g>
<g>
</g>
<g>
</g>
<g>
</g>
<g>
</g>
<g>
</g>
<g>
</g>
<g>
</g>
<g>
</g>
<g>
</g>
<g>
</g>
<g>
</g>
<g>
</g>
</svg>
