<svg height="512pt" viewBox="0 0 512 511" width="512pt" xmlns="http://www.w3.org/2000/svg"><path d="m512 .671875-28.816406 14.40625c-27.535156 13.769531-57.609375 10.480469-100.5625-10.996094l-6.707032-3.351562-6.703124 3.351562c-33.363282 16.679688-73.199219 16.679688-106.5625 0l-6.707032-3.351562-6.707031 3.351562c-33.359375 16.679688-73.195313 16.679688-106.558594 0l-6.707031-3.351562-6.707031 3.351562c-42.601563 21.300781-72.671875 24.441407-100.558594 10.496094l-28.703125-14.078125 73.144531 301.933594h-43.152343v-29.996094h-29.992188v119.972656h32.070312c-.707031 4.902344-1.078124 9.90625-1.078124 15 0 57.882813 47.09375 104.976563 104.976562 104.976563s104.976562-47.09375 104.976562-104.976563c0-5.09375-.371093-10.097656-1.074218-15h32.144531c-.703125 4.902344-1.078125 9.90625-1.078125 15 0 57.882813 47.09375 104.976563 104.976562 104.976563 57.886719 0 104.976563-47.09375 104.976563-104.976563 0-5.09375-.371094-10.097656-1.074219-15h32.070313v-89.976562h-72.410157zm-43.03125 50.6875-45.644531 189.925781c-19.113281-6.835937-39.910157-7.417968-59.285157-1.792968l24.28125-199.757813c24.058594 10.0625 51.792969 17.222656 80.648438 11.625zm-110.964844-10.800781-24.402344 200.78125c-20.226562-7.339844-42.28125-7.648438-62.664062-.925782v-200.738281c28.238281 8.878907 58.683594 9.175781 87.066406.882813zm-117.058594-.882813v200.738281c-20.378906-6.722656-42.433593-6.414062-62.660156.929688l-24.40625-200.785156c28.386719 8.292968 58.828125 8 87.066406-.882813zm-159.917968 12.085938c13.414062-1.847657 27.242187-5.765625 42.53125-12.089844l24.289062 199.824219c-19.183594-5.5625-39.765625-5.046875-58.722656 1.589844l-46.144531-190.207032c12.195312 2.390625 24.917969 2.691406 38.046875.882813zm15.21875 218.675781c20.003906-8.050781 43.085937-5.914062 61.398437 6.292969l8.316407 5.546875 8.320312-5.546875c22.277344-14.851563 51.066406-14.851563 73.34375 0l8.316406 5.546875 8.320313-5.546875c22.277343-14.851563 51.066406-14.851563 73.339843 0l8.320313 5.546875 8.320313-5.546875c18.519531-12.34375 41.871093-14.390625 62.015624-6.039063l-7.628906 31.742188h-304.621094zm354.652344 136.972656c0 8.292969-1.375 16.269532-3.875 23.738282l-26.882813-15.523438c.492187-2.664062.765625-5.410156.765625-8.214844 0-2.808594-.273438-5.550781-.765625-8.21875l26.882813-15.519531c2.5 7.464844 3.875 15.441406 3.875 23.738281zm-149.964844 0c0-8.296875 1.375-16.273437 3.871094-23.738281l26.886718 15.519531c-1.019531 5.5-1.019531 10.925782 0 16.433594l-26.886718 15.519531c-2.496094-7.464843-3.871094-15.441406-3.871094-23.734375zm45.777344-34.179687-26.878907-15.519531c10.582031-11.925782 24.886719-20.472657 41.085938-23.777344v31.066406c-5.25 1.859375-10.054688 4.675781-14.207031 8.230469zm29.203124 49.175781c-8.269531 0-14.996093-6.726562-14.996093-14.996094 0-8.269531 6.726562-15 14.996093-15 8.269532 0 15 6.730469 15 15 0 8.269532-6.730468 14.996094-15 14.996094zm15-88.472656c16.199219 3.300781 30.503907 11.851562 41.082032 23.777344l-26.875 15.519531c-4.152344-3.554688-8.957032-6.371094-14.207032-8.230469zm-179.960937 73.476562c0 8.292969-1.375 16.269532-3.875 23.738282l-26.882813-15.523438c1.019532-5.5 1.019532-10.929688 0-16.433594l26.882813-15.523437c2.5 7.46875 3.875 15.445312 3.875 23.742187zm-149.96875 0c0-8.296875 1.375-16.273437 3.875-23.738281l26.886719 15.519531c-1.019532 5.5-1.019532 10.929688 0 16.433594l-26.886719 15.523438c-2.5-7.46875-3.875-15.445313-3.875-23.738282zm45.777344-34.179687-26.875-15.519531c10.582031-11.925782 24.886719-20.476563 41.085937-23.777344v31.0625c-5.253906 1.863281-10.054687 4.679687-14.210937 8.234375zm29.207031 49.175781c-8.269531 0-14.996094-6.726562-14.996094-14.996094 0-8.269531 6.726563-15 14.996094-15s14.996094 6.730469 14.996094 15c0 8.269532-6.726563 14.996094-14.996094 14.996094zm14.996094-88.472656c16.199218 3.300781 30.507812 11.851562 41.085937 23.777344l-26.875 15.519531c-4.152343-3.554688-8.957031-6.367188-14.210937-8.230469zm-120.972656 28.484375v-30.191407h32.589843c-8.796875 8.613282-16.09375 18.953126-21.445312 30.191407zm49.894531 94.6875 26.875-15.519531c4.15625 3.554687 8.957031 6.371093 14.210937 8.230468v31.066406c-16.199218-3.300781-30.503906-11.851562-41.085937-23.777343zm71.078125 23.777343v-31.066406c5.253906-1.863281 10.058594-4.675781 14.210937-8.230468l26.875 15.519531c-10.578125 11.925781-24.886719 20.476562-41.085937 23.777343zm79.839844-118.464843c-5.355469-11.238281-12.648438-21.578125-21.449219-30.191407h93.171875c-8.796875 8.613282-16.09375 18.953126-21.445313 30.191407zm89.027343 94.6875 26.878907-15.515625c4.152343 3.554687 8.957031 6.367187 14.207031 8.230468v31.0625c-16.199219-3.300781-30.503907-11.851562-41.085938-23.777343zm71.082031 23.777343v-31.066406c5.25-1.863281 10.054688-4.675781 14.207032-8.230468l26.875 15.515624c-10.578125 11.929688-24.882813 20.480469-41.082032 23.78125zm90.976563-118.464843h-11.140625c-5.355469-11.238281-12.648438-21.378907-21.445312-29.992188h32.585937zm0 0"/></svg>