<?xml version="1.0" encoding="iso-8859-1"?>
<!-- Generator: Adobe Illustrator 19.0.0, SVG Export Plug-In . SVG Version: 6.00 Build 0)  -->
<svg version="1.1" id="Capa_1" xmlns="http://www.w3.org/2000/svg" xmlns:xlink="http://www.w3.org/1999/xlink" x="0px" y="0px"
	 viewBox="0 0 512 512" style="enable-background:new 0 0 512 512;" xml:space="preserve">
<g>
	<g>
		<path d="M435.208,305.853c4.732-11.042,8.44-22.711,11.063-34.853H497c8.284,0,15-6.716,15-15s-6.716-15-15-15h-46.525
			c0.337-4.956,0.525-9.956,0.525-15V30h15c8.284,0,15-6.716,15-15s-6.716-15-15-15H46c-8.284,0-15,6.716-15,15s6.716,15,15,15h15.1
			v196c0,5.044,0.188,10.044,0.525,15H15c-8.284,0-15,6.716-15,15s6.716,15,15,15h50.728c2.623,12.142,6.331,23.812,11.063,34.854
			C32.667,318.175,0,358.759,0,407c0,57.969,47.187,105,105,105c54.224,0,99.64-41.517,104.555-95.382
			C224.588,420.16,240.336,422,256,422s31.412-1.84,46.445-5.382C307.353,470.396,352.688,512,407,512c57.739,0,105-46.954,105-105
			C512,358.699,479.281,318.161,435.208,305.853z M91,90h15c8.271,0,15.1,6.729,15.1,15v61c0,8.271-6.829,15-15.1,15H91V90z M91,211
			h15c24.813,0,45-20.187,45-45v-61c0-24.813-20.187-45-45-45H91V30h330v30h-15c-24.813,0-45,20.187-45,45v61
			c0,24.813,20.187,45,45,45h15v15c0,5.059-0.217,10.059-0.606,15h-30.231c-20.506,0-40.712,4.822-59.163,14.025V105
			c0-24.813-20.187-45-45-45h-60c-24.813,0-44.9,20.187-44.9,45v150.025C162.649,245.823,142.342,241,121.836,241h-30.23
			c-0.39-4.941-0.606-9.941-0.606-15V211z M421,90v91h-15c-8.271,0-15-6.729-15-15v-61c0-8.271,6.729-15,15-15H421z M301,211v64.363
			c-12.988,11.577-23.732,25.558-31.584,41.263c-5.535,11.07-21.288,11.088-26.833,0c-7.852-15.705-18.595-29.686-31.583-41.263V211
			H301z M211,181v-76c0-8.271,6.729-15,15-15h15.1v91H211z M271,181V90h15c8.271,0,15,6.729,15,15v76H271z M55.293,463.095
			C43.363,452.512,34.812,438.203,31.509,422h47.51L55.293,463.095z M31.509,392c3.302-16.203,11.854-30.512,23.784-41.095
			L79.019,392H31.509z M105,482c-8.298,0-16.276-1.375-23.744-3.875L105,437l23.744,41.126C121.276,480.625,113.298,482,105,482z
			 M105,377l-23.744-41.126C88.724,333.375,96.702,332,105,332s16.276,1.375,23.744,3.875L105,377z M154.707,463.095L131.081,421.9
			h47.51C175.288,438.103,166.637,452.512,154.707,463.095z M130.981,392l23.726-41.095c11.93,10.583,20.481,24.892,23.784,41.095
			H130.981z M304.305,385.096C288.99,389.621,272.465,392,256,392c-16.464,0-32.989-2.379-48.305-6.904
			c-9.909-46.509-50.639-81.631-99.617-83.048c-4.862-9.695-8.731-20.101-11.54-31.049h25.298c39.118,0,75.981,23.176,93.915,59.043
			c16.575,33.147,63.927,33.144,80.498,0C314.182,294.176,351.046,271,390.164,271h25.299c-2.809,10.948-6.678,21.353-11.541,31.049
			C354.988,303.465,314.219,338.568,304.305,385.096z M357.293,463.096c-11.93-10.583-20.481-24.892-23.784-41.095h47.51
			L357.293,463.096z M333.51,392c3.302-16.203,11.854-30.512,23.784-41.095L381.02,392H333.51z M407,482
			c-8.298,0-16.276-1.375-23.744-3.875L407,437l23.744,41.126C423.277,480.625,415.299,482,407,482z M407,377l-23.744-41.126
			c7.468-2.5,15.446-3.875,23.744-3.875s16.276,1.375,23.744,3.875L407,377z M456.708,463.096L432.981,421.9h47.51
			C477.189,438.103,468.637,452.512,456.708,463.096z M432.982,392l23.726-41.095c11.93,10.583,20.481,24.892,23.784,41.095H432.982
			z"/>
	</g>
</g>
<g>
</g>
<g>
</g>
<g>
</g>
<g>
</g>
<g>
</g>
<g>
</g>
<g>
</g>
<g>
</g>
<g>
</g>
<g>
</g>
<g>
</g>
<g>
</g>
<g>
</g>
<g>
</g>
<g>
</g>
</svg>
