<?xml version="1.0" encoding="iso-8859-1"?>
<!-- Generator: Adobe Illustrator 19.0.0, SVG Export Plug-In . SVG Version: 6.00 Build 0)  -->
<svg version="1.1" id="Capa_1" xmlns="http://www.w3.org/2000/svg" xmlns:xlink="http://www.w3.org/1999/xlink" x="0px" y="0px"
	 viewBox="0 0 512 512" style="enable-background:new 0 0 512 512;" xml:space="preserve">
<g>
	<g>
		<path d="M497,361.5h-65.333V16.998c0-7.432-5.441-13.743-12.792-14.836C409.238,0.727,399.574,0,390.151,0
			c-75.213,0-130.42,45.022-183.81,88.561c-51.584,42.067-100.308,81.802-164.827,81.808c-0.005,0-0.01,0-0.016,0
			c-7.939,0-16.112-0.617-24.291-1.834c-4.314-0.641-8.698,0.627-12.003,3.477C1.9,174.861,0,179.008,0,183.372v193.127v0.001
			c0,8.284,6.716,15,15,15h66.167c7.49,67.681,65.021,120.5,134.666,120.5s127.177-52.818,134.665-120.5H497c8.284,0,15-6.716,15-15
			S505.284,361.5,497,361.5z M111.404,391.5h68.215l-48.205,48.205C121.026,425.866,113.964,409.4,111.404,391.5z M111.404,361.499
			c2.559-17.901,9.623-34.368,20.011-48.207l48.206,48.207H111.404z M200.833,480.928c-17.9-2.559-34.367-9.622-48.206-20.011
			l48.206-48.206V480.928z M200.833,340.284l-48.205-48.206c13.839-10.387,30.305-17.45,48.205-20.009V340.284z M230.833,480.929
			v-68.218l48.206,48.207C265.2,471.306,248.733,478.37,230.833,480.929z M300.252,439.705L252.048,391.5h68.214
			C317.702,409.4,310.64,425.866,300.252,439.705z M252.046,361.498l48.206-48.206c10.388,13.839,17.45,30.306,20.01,48.205
			L252.046,361.498z M230.833,340.286V272.07c17.9,2.559,34.367,9.622,48.206,20.01L230.833,340.286z M401.667,361.499h-51.169
			c-7.488-67.682-65.021-120.5-134.665-120.5c-69.645,0-127.177,52.818-134.666,120.5H30V200.015
			c3.861,0.236,7.7,0.354,11.498,0.354c0.006,0,0.013,0,0.02,0c75.199-0.007,130.4-45.024,183.784-88.559
			C276.892,69.739,325.62,30,390.151,30c3.795,0,7.642,0.141,11.516,0.42V361.499z"/>
	</g>
</g>
<g>
</g>
<g>
</g>
<g>
</g>
<g>
</g>
<g>
</g>
<g>
</g>
<g>
</g>
<g>
</g>
<g>
</g>
<g>
</g>
<g>
</g>
<g>
</g>
<g>
</g>
<g>
</g>
<g>
</g>
</svg>
